<?xml version="1.0" encoding="utf-8" standalone="no"?>
<!DOCTYPE svg PUBLIC "-//W3C//DTD SVG 1.1//EN"
  "http://www.w3.org/Graphics/SVG/1.1/DTD/svg11.dtd">
<svg xmlns:xlink="http://www.w3.org/1999/xlink" width="457.230824pt" height="559.636666pt" viewBox="0 0 457.230824 559.636666" xmlns="http://www.w3.org/2000/svg" version="1.1">
 <metadata>
  <rdf:RDF xmlns:dc="http://purl.org/dc/elements/1.1/" xmlns:cc="http://creativecommons.org/ns#" xmlns:rdf="http://www.w3.org/1999/02/22-rdf-syntax-ns#">
   <cc:Work>
    <dc:type rdf:resource="http://purl.org/dc/dcmitype/StillImage"/>
    <dc:date>2026-05-16T16:35:32.473372</dc:date>
    <dc:format>image/svg+xml</dc:format>
    <dc:creator>
     <cc:Agent>
      <dc:title>Matplotlib v3.10.0, https://matplotlib.org/</dc:title>
     </cc:Agent>
    </dc:creator>
   </cc:Work>
  </rdf:RDF>
 </metadata>
 <defs>
  <style type="text/css">*{stroke-linejoin: round; stroke-linecap: butt}</style>
 </defs>
 <g id="figure_1">
  <g id="patch_1">
   <path d="M 0 559.636666 
L 457.230824 559.636666 
L 457.230824 0 
L 0 0 
z
" style="fill: #ffffff"/>
  </g>
  <g id="axes_1">
   <g id="patch_2">
    <path d="M 16.653176 127.08 
L 134.817882 127.08 
L 134.817882 33.84 
L 16.653176 33.84 
z
" style="fill: #ffffff"/>
   </g>
   <g id="patch_3">
    <path d="M 29.651294 82.3248 
L 55.647529 82.3248 
Q 57.42 82.3248 57.42 80.9262 
L 57.42 70.6698 
Q 57.42 69.2712 55.647529 69.2712 
L 29.651294 69.2712 
Q 27.878824 69.2712 27.878824 70.6698 
L 27.878824 80.9262 
Q 27.878824 82.3248 29.651294 82.3248 
z
" clip-path="url(#p942b811883)" style="fill: #d8d8d8; stroke: #4d4d4d; stroke-width: 0.7; stroke-linejoin: miter"/>
   </g>
   <g id="patch_4">
    <path d="M 59.192471 82.3248 
L 85.188706 82.3248 
Q 86.961176 82.3248 86.961176 80.9262 
L 86.961176 70.6698 
Q 86.961176 69.2712 85.188706 69.2712 
L 59.192471 69.2712 
Q 57.42 69.2712 57.42 70.6698 
L 57.42 80.9262 
Q 57.42 82.3248 59.192471 82.3248 
z
" clip-path="url(#p942b811883)" style="fill: #d8d8d8; stroke: #4d4d4d; stroke-width: 0.7; stroke-linejoin: miter"/>
   </g>
   <g id="patch_5">
    <path d="M 88.733647 82.3248 
L 114.729882 82.3248 
Q 116.502353 82.3248 116.502353 80.9262 
L 116.502353 70.6698 
Q 116.502353 69.2712 114.729882 69.2712 
L 88.733647 69.2712 
Q 86.961176 69.2712 86.961176 70.6698 
L 86.961176 80.9262 
Q 86.961176 82.3248 88.733647 82.3248 
z
" clip-path="url(#p942b811883)" style="fill: #d8d8d8; stroke: #4d4d4d; stroke-width: 0.7; stroke-linejoin: miter"/>
   </g>
   <g id="matplotlib.axis_1"/>
   <g id="matplotlib.axis_2"/>
   <g id="text_1">
    <text style="font-weight: 700; font-size: 9px; font-family: 'Arial', 'DejaVu Sans', 'Liberation Sans', sans-serif; text-anchor: start; fill: #272727" x="7.2" y="28.334306" transform="rotate(-0 7.2 28.334306)">a</text>
   </g>
   <g id="text_2">
    <text style="font-size: 6.7px; font-family: 'Arial', 'DejaVu Sans', 'Liberation Sans', sans-serif; text-anchor: middle" x="42.649412" y="77.531625" transform="rotate(-0 42.649412 77.531625)">(a,0)</text>
   </g>
   <g id="text_3">
    <text style="font-size: 6.7px; font-family: 'Arial', 'DejaVu Sans', 'Liberation Sans', sans-serif; text-anchor: middle" x="72.190588" y="77.531625" transform="rotate(-0 72.190588 77.531625)">(b,0)</text>
   </g>
   <g id="text_4">
    <text style="font-size: 6.7px; font-family: 'Arial', 'DejaVu Sans', 'Liberation Sans', sans-serif; text-anchor: middle" x="101.731765" y="77.531625" transform="rotate(-0 101.731765 77.531625)">(c,1)</text>
   </g>
   <g id="text_5">
    <text style="font-size: 8px; font-family: 'Arial', 'DejaVu Sans', 'Liberation Sans', sans-serif; text-anchor: middle" x="75.735529" y="29.84" transform="rotate(-0 75.735529 29.84)">Original sample</text>
   </g>
  </g>
  <g id="axes_2">
   <g id="patch_6">
    <path d="M 158.450824 127.08 
L 276.615529 127.08 
L 276.615529 33.84 
L 158.450824 33.84 
z
" style="fill: #ffffff"/>
   </g>
   <g id="patch_7">
    <path d="M 171.448941 77.6628 
L 197.445176 77.6628 
Q 199.217647 77.6628 199.217647 76.2642 
L 199.217647 66.0078 
Q 199.217647 64.6092 197.445176 64.6092 
L 171.448941 64.6092 
Q 169.676471 64.6092 169.676471 66.0078 
L 169.676471 76.2642 
Q 169.676471 77.6628 171.448941 77.6628 
z
" clip-path="url(#ped285d3939)" style="fill: #ffe5e0; stroke: #4d4d4d; stroke-width: 0.7; stroke-linejoin: miter"/>
   </g>
   <g id="patch_8">
    <path d="M 204.535059 77.6628 
L 230.531294 77.6628 
Q 232.303765 77.6628 232.303765 76.2642 
L 232.303765 66.0078 
Q 232.303765 64.6092 230.531294 64.6092 
L 204.535059 64.6092 
Q 202.762588 64.6092 202.762588 66.0078 
L 202.762588 76.2642 
Q 202.762588 77.6628 204.535059 77.6628 
z
" clip-path="url(#ped285d3939)" style="fill: #d8d8d8; stroke: #4d4d4d; stroke-width: 0.7; stroke-linejoin: miter"/>
   </g>
   <g id="patch_9">
    <path d="M 237.621176 77.6628 
L 263.617412 77.6628 
Q 265.389882 77.6628 265.389882 76.2642 
L 265.389882 66.0078 
Q 265.389882 64.6092 263.617412 64.6092 
L 237.621176 64.6092 
Q 235.848706 64.6092 235.848706 66.0078 
L 235.848706 76.2642 
Q 235.848706 77.6628 237.621176 77.6628 
z
" clip-path="url(#ped285d3939)" style="fill: #d8d8d8; stroke: #4d4d4d; stroke-width: 0.7; stroke-linejoin: miter"/>
   </g>
   <g id="matplotlib.axis_3"/>
   <g id="matplotlib.axis_4"/>
   <g id="text_6">
    <text style="font-weight: 700; font-size: 9px; font-family: 'Arial', 'DejaVu Sans', 'Liberation Sans', sans-serif; text-anchor: start; fill: #272727" x="148.997647" y="28.334306" transform="rotate(-0 148.997647 28.334306)">b</text>
   </g>
   <g id="text_7">
    <text style="font-size: 6.7px; font-family: 'Arial', 'DejaVu Sans', 'Liberation Sans', sans-serif; text-anchor: middle" x="184.447059" y="72.869625" transform="rotate(-0 184.447059 72.869625)">(a,0)</text>
   </g>
   <g id="text_8">
    <text style="font-size: 6.7px; font-family: 'Arial', 'DejaVu Sans', 'Liberation Sans', sans-serif; text-anchor: middle" x="217.533176" y="72.869625" transform="rotate(-0 217.533176 72.869625)">(b,0)</text>
   </g>
   <g id="text_9">
    <text style="font-size: 6.7px; font-family: 'Arial', 'DejaVu Sans', 'Liberation Sans', sans-serif; text-anchor: middle" x="250.619294" y="72.869625" transform="rotate(-0 250.619294 72.869625)">(c,1)</text>
   </g>
   <g id="patch_10">
    <path d="M 184.447059 82.460699 
Q 184.447059 90.715668 184.447059 97.628996 
" style="fill: none; stroke: #000000; stroke-width: 1.2; stroke-linecap: round"/>
    <path d="M 185.947059 94.628996 
L 184.447059 97.628996 
L 182.947059 94.628996 
" style="fill: none; stroke: #000000; stroke-width: 1.2; stroke-linecap: round"/>
   </g>
   <g id="text_10">
    <text style="font-size: 6.5px; font-family: 'Arial', 'DejaVu Sans', 'Liberation Sans', sans-serif; text-anchor: middle" x="184.447059" y="108.432" transform="rotate(-0 184.447059 108.432)">query = deleted occurrence</text>
   </g>
   <g id="text_11">
    <text style="font-size: 8px; font-family: 'Arial', 'DejaVu Sans', 'Liberation Sans', sans-serif; text-anchor: middle" x="217.533176" y="29.84" transform="rotate(-0 217.533176 29.84)">LOO: delete and evaluate same occurrence</text>
   </g>
  </g>
  <g id="axes_3">
   <g id="patch_11">
    <path d="M 300.248471 127.08 
L 418.413176 127.08 
L 418.413176 33.84 
L 300.248471 33.84 
z
" style="fill: #ffffff"/>
   </g>
   <g id="patch_12">
    <path d="M 313.246588 77.6628 
L 339.242824 77.6628 
Q 341.015294 77.6628 341.015294 76.2642 
L 341.015294 66.0078 
Q 341.015294 64.6092 339.242824 64.6092 
L 313.246588 64.6092 
Q 311.474118 64.6092 311.474118 66.0078 
L 311.474118 76.2642 
Q 311.474118 77.6628 313.246588 77.6628 
z
" clip-path="url(#p25fd062d2b)" style="fill: #e4ccd8; stroke: #4d4d4d; stroke-width: 0.7; stroke-linejoin: miter"/>
   </g>
   <g id="patch_13">
    <path d="M 346.332706 77.6628 
L 372.328941 77.6628 
Q 374.101412 77.6628 374.101412 76.2642 
L 374.101412 66.0078 
Q 374.101412 64.6092 372.328941 64.6092 
L 346.332706 64.6092 
Q 344.560235 64.6092 344.560235 66.0078 
L 344.560235 76.2642 
Q 344.560235 77.6628 346.332706 77.6628 
z
" clip-path="url(#p25fd062d2b)" style="fill: #d8d8d8; stroke: #4d4d4d; stroke-width: 0.7; stroke-linejoin: miter"/>
   </g>
   <g id="patch_14">
    <path d="M 379.418824 77.6628 
L 405.415059 77.6628 
Q 407.187529 77.6628 407.187529 76.2642 
L 407.187529 66.0078 
Q 407.187529 64.6092 405.415059 64.6092 
L 379.418824 64.6092 
Q 377.646353 64.6092 377.646353 66.0078 
L 377.646353 76.2642 
Q 377.646353 77.6628 379.418824 77.6628 
z
" clip-path="url(#p25fd062d2b)" style="fill: #d8d8d8; stroke: #4d4d4d; stroke-width: 0.7; stroke-linejoin: miter"/>
   </g>
   <g id="matplotlib.axis_5"/>
   <g id="matplotlib.axis_6"/>
   <g id="text_12">
    <text style="font-weight: 700; font-size: 9px; font-family: 'Arial', 'DejaVu Sans', 'Liberation Sans', sans-serif; text-anchor: start; fill: #272727" x="290.795294" y="28.334306" transform="rotate(-0 290.795294 28.334306)">c</text>
   </g>
   <g id="text_13">
    <text style="font-size: 6.7px; font-family: 'Arial', 'DejaVu Sans', 'Liberation Sans', sans-serif; text-anchor: middle" x="326.244706" y="72.869625" transform="rotate(-0 326.244706 72.869625)">(a,1)</text>
   </g>
   <g id="text_14">
    <text style="font-size: 6.7px; font-family: 'Arial', 'DejaVu Sans', 'Liberation Sans', sans-serif; text-anchor: middle" x="359.330824" y="72.869625" transform="rotate(-0 359.330824 72.869625)">(b,0)</text>
   </g>
   <g id="text_15">
    <text style="font-size: 6.7px; font-family: 'Arial', 'DejaVu Sans', 'Liberation Sans', sans-serif; text-anchor: middle" x="392.416941" y="72.869625" transform="rotate(-0 392.416941 72.869625)">(c,1)</text>
   </g>
   <g id="patch_15">
    <path d="M 328.124494 81.139837 
Q 354.605261 90.716771 379.824363 99.837416 
" style="fill: none; stroke: #000000; stroke-width: 1.2; stroke-linecap: round"/>
    <path d="M 377.51334 97.406537 
L 379.824363 99.837416 
L 376.493046 100.227707 
" style="fill: none; stroke: #000000; stroke-width: 1.2; stroke-linecap: round"/>
   </g>
   <g id="text_16">
    <text style="font-size: 6.5px; font-family: 'Arial', 'DejaVu Sans', 'Liberation Sans', sans-serif; text-anchor: middle" x="382.963765" y="108.432" transform="rotate(-0 382.963765 108.432)">query chosen independently</text>
   </g>
   <g id="text_17">
    <text style="font-size: 8px; font-family: 'Arial', 'DejaVu Sans', 'Liberation Sans', sans-serif; text-anchor: middle" x="359.330824" y="29.84" transform="rotate(-0 359.330824 29.84)">Replace-one: arbitrary replacement, arbitrary query</text>
   </g>
  </g>
  <g id="axes_4">
   <g id="patch_16">
    <path d="M 16.653176 238.968 
L 134.817882 238.968 
L 134.817882 145.728 
L 16.653176 145.728 
z
" style="fill: #ffffff"/>
   </g>
   <g id="matplotlib.axis_7"/>
   <g id="matplotlib.axis_8"/>
   <g id="text_18">
    <text style="font-weight: 700; font-size: 9px; font-family: 'Arial', 'DejaVu Sans', 'Liberation Sans', sans-serif; text-anchor: start; fill: #272727" x="7.2" y="140.222306" transform="rotate(-0 7.2 140.222306)">d</text>
   </g>
   <g id="text_19">
    <text style="font-weight: 700; font-size: 8px; font-family: 'Arial', 'DejaVu Sans', 'Liberation Sans', sans-serif; text-anchor: middle; fill: #0f4d92" x="75.735529" y="181.1592" transform="rotate(-0 75.735529 181.1592)">delete-one</text>
   </g>
   <g id="text_20">
    <text style="font-weight: 700; font-size: 8px; font-family: 'Arial', 'DejaVu Sans', 'Liberation Sans', sans-serif; text-anchor: middle; fill: #42949e" x="75.735529" y="203.5368" transform="rotate(-0 75.735529 203.5368)">insert-one</text>
   </g>
   <g id="text_21">
    <text style="font-size: 6.8px; font-family: 'Arial', 'DejaVu Sans', 'Liberation Sans', sans-serif; text-anchor: middle" x="75.735529" y="224.0496" transform="rotate(-0 75.735529 224.0496)">replace-one = delete + insert</text>
   </g>
   <g id="text_22">
    <text style="font-size: 8px; font-family: 'Arial', 'DejaVu Sans', 'Liberation Sans', sans-serif; text-anchor: middle" x="75.735529" y="141.728" transform="rotate(-0 75.735529 141.728)">Operation</text>
   </g>
  </g>
  <g id="axes_5">
   <g id="patch_17">
    <path d="M 158.450824 238.968 
L 276.615529 238.968 
L 276.615529 145.728 
L 158.450824 145.728 
z
" style="fill: #ffffff"/>
   </g>
   <g id="PathCollection_1">
    <path d="M 174.564193 196.5313 
C 175.673617 196.5313 176.737751 196.090521 177.522232 195.30604 
C 178.306714 194.521559 178.747493 193.457424 178.747493 192.348 
C 178.747493 191.238576 178.306714 190.174441 177.522232 189.38996 
C 176.737751 188.605479 175.673617 188.1647 174.564193 188.1647 
C 173.454768 188.1647 172.390634 188.605479 171.606153 189.38996 
C 170.821671 190.174441 170.380892 191.238576 170.380892 192.348 
C 170.380892 193.457424 170.821671 194.521559 171.606153 195.30604 
C 172.390634 196.090521 173.454768 196.5313 174.564193 196.5313 
z
" clip-path="url(#p5ddc070c6b)" style="fill: #0f4d92; stroke: #0f4d92"/>
    <path d="M 248.225308 196.5313 
C 249.334732 196.5313 250.398866 196.090521 251.183348 195.30604 
C 251.967829 194.521559 252.408608 193.457424 252.408608 192.348 
C 252.408608 191.238576 251.967829 190.174441 251.183348 189.38996 
C 250.398866 188.605479 249.334732 188.1647 248.225308 188.1647 
C 247.115884 188.1647 246.051749 188.605479 245.267268 189.38996 
C 244.482787 190.174441 244.042008 191.238576 244.042008 192.348 
C 244.042008 193.457424 244.482787 194.521559 245.267268 195.30604 
C 246.051749 196.090521 247.115884 196.5313 248.225308 196.5313 
z
" clip-path="url(#p5ddc070c6b)" style="fill: #b64342; stroke: #b64342"/>
   </g>
   <g id="matplotlib.axis_9"/>
   <g id="matplotlib.axis_10"/>
   <g id="line2d_1">
    <path d="M 163.821947 192.348 
L 271.244406 192.348 
" clip-path="url(#p5ddc070c6b)" style="fill: none; stroke: #767676; stroke-width: 1.2; stroke-linecap: square"/>
   </g>
   <g id="text_23">
    <text style="font-weight: 700; font-size: 9px; font-family: 'Arial', 'DejaVu Sans', 'Liberation Sans', sans-serif; text-anchor: start; fill: #272727" x="148.997647" y="140.222306" transform="rotate(-0 148.997647 140.222306)">e</text>
   </g>
   <g id="text_24">
    <text style="font-size: 7px; font-family: 'Arial', 'DejaVu Sans', 'Liberation Sans', sans-serif; text-anchor: middle" x="174.564193" y="550.963385" transform="rotate(-0 174.564193 550.963385)">LOO</text>
   </g>
   <g id="text_25">
    <text style="font-size: 7px; font-family: 'Arial', 'DejaVu Sans', 'Liberation Sans', sans-serif; text-anchor: middle" x="248.225308" y="550.963385" transform="rotate(-0 248.225308 550.963385)">worst-case query</text>
   </g>
   <g id="text_26">
    <text style="font-size: 8px; font-family: 'Arial', 'DejaVu Sans', 'Liberation Sans', sans-serif; text-anchor: middle" x="217.533176" y="141.728" transform="rotate(-0 217.533176 141.728)">Evaluation point</text>
   </g>
  </g>
  <g id="axes_6">
   <g id="patch_18">
    <path d="M 300.248471 238.968 
L 418.413176 238.968 
L 418.413176 145.728 
L 300.248471 145.728 
z
" style="fill: #ffffff"/>
   </g>
   <g id="matplotlib.axis_11"/>
   <g id="matplotlib.axis_12"/>
   <g id="text_27">
    <text style="font-weight: 700; font-size: 9px; font-family: 'Arial', 'DejaVu Sans', 'Liberation Sans', sans-serif; text-anchor: start; fill: #272727" x="290.795294" y="140.222306" transform="rotate(-0 290.795294 140.222306)">f</text>
   </g>
   <g id="text_28">
    <text style="font-weight: 700; font-size: 9px; font-family: 'Arial', 'DejaVu Sans', 'Liberation Sans', sans-serif; text-anchor: middle; fill: #0f4d92" x="359.330824" y="181.1592" transform="rotate(-0 359.330824 181.1592)">zero LOO</text>
   </g>
   <g id="text_29">
    <text style="font-size: 7px; font-family: 'Arial', 'DejaVu Sans', 'Liberation Sans', sans-serif; text-anchor: middle" x="359.330824" y="201.672" transform="rotate(-0 359.330824 201.672)">does not imply</text>
   </g>
   <g id="text_30">
    <text style="font-weight: 700; font-size: 9px; font-family: 'Arial', 'DejaVu Sans', 'Liberation Sans', sans-serif; text-anchor: middle; fill: #b64342" x="359.330824" y="220.32" transform="rotate(-0 359.330824 220.32)">zero replace-one</text>
   </g>
   <g id="text_31">
    <text style="font-size: 8px; font-family: 'Arial', 'DejaVu Sans', 'Liberation Sans', sans-serif; text-anchor: middle" x="359.330824" y="141.728" transform="rotate(-0 359.330824 141.728)">What LOO cannot certify</text>
   </g>
  </g>
  <g id="text_32">
   <text style="font-size: 10px; font-family: 'Arial', 'DejaVu Sans', 'Liberation Sans', sans-serif; text-anchor: middle" x="211.053176" y="14.357812" transform="rotate(-0 211.053176 14.357812)">Perturbation operation and evaluation point are separate choices</text>
  </g>
 </g>
 <defs>
  <clipPath id="p942b811883">
   <rect x="16.653176" y="33.84" width="118.164706" height="93.24"/>
  </clipPath>
  <clipPath id="ped285d3939">
   <rect x="158.450824" y="33.84" width="118.164706" height="93.24"/>
  </clipPath>
  <clipPath id="p25fd062d2b">
   <rect x="300.248471" y="33.84" width="118.164706" height="93.24"/>
  </clipPath>
  <clipPath id="p5ddc070c6b">
   <rect x="158.450824" y="145.728" width="118.164706" height="93.24"/>
  </clipPath>
 </defs>
</svg>
