<?xml version="1.0" encoding="utf-8" standalone="no"?>
<!DOCTYPE svg PUBLIC "-//W3C//DTD SVG 1.1//EN"
  "http://www.w3.org/Graphics/SVG/1.1/DTD/svg11.dtd">
<svg xmlns:xlink="http://www.w3.org/1999/xlink" width="619.683523pt" height="390.24pt" viewBox="0 0 619.683523 390.24" xmlns="http://www.w3.org/2000/svg" version="1.1">
 <metadata>
  <rdf:RDF xmlns:dc="http://purl.org/dc/elements/1.1/" xmlns:cc="http://creativecommons.org/ns#" xmlns:rdf="http://www.w3.org/1999/02/22-rdf-syntax-ns#">
   <cc:Work>
    <dc:type rdf:resource="http://purl.org/dc/dcmitype/StillImage"/>
    <dc:date>2026-05-14T15:39:08.643844</dc:date>
    <dc:format>image/svg+xml</dc:format>
    <dc:creator>
     <cc:Agent>
      <dc:title>Matplotlib v3.9.4, https://matplotlib.org/</dc:title>
     </cc:Agent>
    </dc:creator>
   </cc:Work>
  </rdf:RDF>
 </metadata>
 <defs>
  <style type="text/css">*{stroke-linejoin: round; stroke-linecap: butt}</style>
 </defs>
 <g id="figure_1">
  <g id="patch_1">
   <path d="M 0 390.24
L 619.683523 390.24
L 619.683523 0
L 0 0
z
" style="fill: #ffffff"/>
  </g>
  <g id="axes_1">
   <g id="line2d_1">
    <path d="M 73.538182 126
L 194.498182 126
" clip-path="url(#pf6ceffab32)" style="fill: none; stroke: #4a4a4a; stroke-width: 1.8; stroke-linecap: square"/>
   </g>
   <g id="patch_2">
    <path d="M 73.538182 142.632
C 77.94904 142.632 82.179834 140.879548 85.298782 137.7606
C 88.417729 134.641652 90.170182 130.410858 90.170182 126
C 90.170182 121.589142 88.417729 117.358348 85.298782 114.2394
C 82.179834 111.120452 77.94904 109.368 73.538182 109.368
C 69.127324 109.368 64.896529 111.120452 61.777582 114.2394
C 58.658634 117.358348 56.906182 121.589142 56.906182 126
C 56.906182 130.410858 58.658634 134.641652 61.777582 137.7606
C 64.896529 140.879548 69.127324 142.632 73.538182 142.632
z
" clip-path="url(#pf6ceffab32)" style="fill: #d8eefc; stroke: #1f2937; stroke-width: 1.8; stroke-linejoin: miter"/>
   </g>
   <g id="patch_3">
    <path d="M 194.498182 142.632
C 198.90904 142.632 203.139834 140.879548 206.258782 137.7606
C 209.377729 134.641652 211.130182 130.410858 211.130182 126
C 211.130182 121.589142 209.377729 117.358348 206.258782 114.2394
C 203.139834 111.120452 198.90904 109.368 194.498182 109.368
C 190.087324 109.368 185.856529 111.120452 182.737582 114.2394
C 179.618634 117.358348 177.866182 121.589142 177.866182 126
C 177.866182 130.410858 179.618634 134.641652 182.737582 137.7606
C 185.856529 140.879548 190.087324 142.632 194.498182 142.632
z
" clip-path="url(#pf6ceffab32)" style="fill: #d8eefc; stroke: #1f2937; stroke-width: 1.8; stroke-linejoin: miter"/>
   </g>
   <g id="text_1">
    <!-- 0 -->
    <g transform="translate(69.711385 126.011312) scale(0.11 -0.11)">
     <defs>
      <path id="DejaVuSans-Bold-30" d="M 2944 2338
Q 2944 3213 2780 3570
Q 2616 3928 2228 3928
Q 1841 3928 1675 3570
Q 1509 3213 1509 2338
Q 1509 1453 1675 1090
Q 1841 728 2228 728
Q 2613 728 2778 1090
Q 2944 1453 2944 2338
z
M 4147 2328
Q 4147 1169 3647 539
Q 3147 -91 2228 -91
Q 1306 -91 806 539
Q 306 1169 306 2328
Q 306 3491 806 4120
Q 1306 4750 2228 4750
Q 3147 4750 3647 4120
Q 4147 3491 4147 2328
z
" transform="scale(0.015625)"/>
     </defs>
     <use xlink:href="#DejaVuSans-Bold-30"/>
    </g>
   </g>
   <g id="text_2">
    <!-- label 0 -->
    <g transform="translate(60.047557 138.0355) scale(0.08 -0.08)">
     <defs>
      <path id="DejaVuSans-6c" d="M 603 4863
L 1178 4863
L 1178 0
L 603 0
L 603 4863
z
" transform="scale(0.015625)"/>
      <path id="DejaVuSans-61" d="M 2194 1759
Q 1497 1759 1228 1600
Q 959 1441 959 1056
Q 959 750 1161 570
Q 1363 391 1709 391
Q 2188 391 2477 730
Q 2766 1069 2766 1631
L 2766 1759
L 2194 1759
z
M 3341 1997
L 3341 0
L 2766 0
L 2766 531
Q 2569 213 2275 61
Q 1981 -91 1556 -91
Q 1019 -91 701 211
Q 384 513 384 1019
Q 384 1609 779 1909
Q 1175 2209 1959 2209
L 2766 2209
L 2766 2266
Q 2766 2663 2505 2880
Q 2244 3097 1772 3097
Q 1472 3097 1187 3025
Q 903 2953 641 2809
L 641 3341
Q 956 3463 1253 3523
Q 1550 3584 1831 3584
Q 2591 3584 2966 3190
Q 3341 2797 3341 1997
z
" transform="scale(0.015625)"/>
      <path id="DejaVuSans-62" d="M 3116 1747
Q 3116 2381 2855 2742
Q 2594 3103 2138 3103
Q 1681 3103 1420 2742
Q 1159 2381 1159 1747
Q 1159 1113 1420 752
Q 1681 391 2138 391
Q 2594 391 2855 752
Q 3116 1113 3116 1747
z
M 1159 2969
Q 1341 3281 1617 3432
Q 1894 3584 2278 3584
Q 2916 3584 3314 3078
Q 3713 2572 3713 1747
Q 3713 922 3314 415
Q 2916 -91 2278 -91
Q 1894 -91 1617 61
Q 1341 213 1159 525
L 1159 0
L 581 0
L 581 4863
L 1159 4863
L 1159 2969
z
" transform="scale(0.015625)"/>
      <path id="DejaVuSans-65" d="M 3597 1894
L 3597 1613
L 953 1613
Q 991 1019 1311 708
Q 1631 397 2203 397
Q 2534 397 2845 478
Q 3156 559 3463 722
L 3463 178
Q 3153 47 2828 -22
Q 2503 -91 2169 -91
Q 1331 -91 842 396
Q 353 884 353 1716
Q 353 2575 817 3079
Q 1281 3584 2069 3584
Q 2775 3584 3186 3129
Q 3597 2675 3597 1894
z
M 3022 2063
Q 3016 2534 2758 2815
Q 2500 3097 2075 3097
Q 1594 3097 1305 2825
Q 1016 2553 972 2059
L 3022 2063
z
" transform="scale(0.015625)"/>
      <path id="DejaVuSans-20" transform="scale(0.015625)"/>
      <path id="DejaVuSans-30" d="M 2034 4250
Q 1547 4250 1301 3770
Q 1056 3291 1056 2328
Q 1056 1369 1301 889
Q 1547 409 2034 409
Q 2525 409 2770 889
Q 3016 1369 3016 2328
Q 3016 3291 2770 3770
Q 2525 4250 2034 4250
z
M 2034 4750
Q 2819 4750 3233 4129
Q 3647 3509 3647 2328
Q 3647 1150 3233 529
Q 2819 -91 2034 -91
Q 1250 -91 836 529
Q 422 1150 422 2328
Q 422 3509 836 4129
Q 1250 4750 2034 4750
z
" transform="scale(0.015625)"/>
     </defs>
     <use xlink:href="#DejaVuSans-6c"/>
     <use xlink:href="#DejaVuSans-61" x="27.783203"/>
     <use xlink:href="#DejaVuSans-62" x="89.0625"/>
     <use xlink:href="#DejaVuSans-65" x="152.539062"/>
     <use xlink:href="#DejaVuSans-6c" x="214.0625"/>
     <use xlink:href="#DejaVuSans-20" x="241.845703"/>
     <use xlink:href="#DejaVuSans-30" x="273.632812"/>
    </g>
   </g>
   <g id="text_3">
    <!-- 1 -->
    <g transform="translate(190.671385 126.011312) scale(0.11 -0.11)">
     <defs>
      <path id="DejaVuSans-Bold-31" d="M 750 831
L 1813 831
L 1813 3847
L 722 3622
L 722 4441
L 1806 4666
L 2950 4666
L 2950 831
L 4013 831
L 4013 0
L 750 0
L 750 831
z
" transform="scale(0.015625)"/>
     </defs>
     <use xlink:href="#DejaVuSans-Bold-31"/>
    </g>
   </g>
   <g id="text_4">
    <!-- label 0 -->
    <g transform="translate(181.007557 138.0355) scale(0.08 -0.08)">
     <use xlink:href="#DejaVuSans-6c"/>
     <use xlink:href="#DejaVuSans-61" x="27.783203"/>
     <use xlink:href="#DejaVuSans-62" x="89.0625"/>
     <use xlink:href="#DejaVuSans-65" x="152.539062"/>
     <use xlink:href="#DejaVuSans-6c" x="214.0625"/>
     <use xlink:href="#DejaVuSans-20" x="241.845703"/>
     <use xlink:href="#DejaVuSans-30" x="273.632812"/>
    </g>
   </g>
   <g id="text_5">
    <!-- Graph metric -->
    <g transform="translate(94.386307 44.4) scale(0.12 -0.12)">
     <defs>
      <path id="DejaVuSans-47" d="M 3809 666
L 3809 1919
L 2778 1919
L 2778 2438
L 4434 2438
L 4434 434
Q 4069 175 3628 42
Q 3188 -91 2688 -91
Q 1594 -91 976 548
Q 359 1188 359 2328
Q 359 3472 976 4111
Q 1594 4750 2688 4750
Q 3144 4750 3555 4637
Q 3966 4525 4313 4306
L 4313 3634
Q 3963 3931 3569 4081
Q 3175 4231 2741 4231
Q 1884 4231 1454 3753
Q 1025 3275 1025 2328
Q 1025 1384 1454 906
Q 1884 428 2741 428
Q 3075 428 3337 486
Q 3600 544 3809 666
z
" transform="scale(0.015625)"/>
      <path id="DejaVuSans-72" d="M 2631 2963
Q 2534 3019 2420 3045
Q 2306 3072 2169 3072
Q 1681 3072 1420 2755
Q 1159 2438 1159 1844
L 1159 0
L 581 0
L 581 3500
L 1159 3500
L 1159 2956
Q 1341 3275 1631 3429
Q 1922 3584 2338 3584
Q 2397 3584 2469 3576
Q 2541 3569 2628 3553
L 2631 2963
z
" transform="scale(0.015625)"/>
      <path id="DejaVuSans-70" d="M 1159 525
L 1159 -1331
L 581 -1331
L 581 3500
L 1159 3500
L 1159 2969
Q 1341 3281 1617 3432
Q 1894 3584 2278 3584
Q 2916 3584 3314 3078
Q 3713 2572 3713 1747
Q 3713 922 3314 415
Q 2916 -91 2278 -91
Q 1894 -91 1617 61
Q 1341 213 1159 525
z
M 3116 1747
Q 3116 2381 2855 2742
Q 2594 3103 2138 3103
Q 1681 3103 1420 2742
Q 1159 2381 1159 1747
Q 1159 1113 1420 752
Q 1681 391 2138 391
Q 2594 391 2855 752
Q 3116 1113 3116 1747
z
" transform="scale(0.015625)"/>
      <path id="DejaVuSans-68" d="M 3513 2113
L 3513 0
L 2938 0
L 2938 2094
Q 2938 2591 2744 2837
Q 2550 3084 2163 3084
Q 1697 3084 1428 2787
Q 1159 2491 1159 1978
L 1159 0
L 581 0
L 581 4863
L 1159 4863
L 1159 2956
Q 1366 3272 1645 3428
Q 1925 3584 2291 3584
Q 2894 3584 3203 3211
Q 3513 2838 3513 2113
z
" transform="scale(0.015625)"/>
      <path id="DejaVuSans-6d" d="M 3328 2828
Q 3544 3216 3844 3400
Q 4144 3584 4550 3584
Q 5097 3584 5394 3201
Q 5691 2819 5691 2113
L 5691 0
L 5113 0
L 5113 2094
Q 5113 2597 4934 2840
Q 4756 3084 4391 3084
Q 3944 3084 3684 2787
Q 3425 2491 3425 1978
L 3425 0
L 2847 0
L 2847 2094
Q 2847 2600 2669 2842
Q 2491 3084 2119 3084
Q 1678 3084 1418 2786
Q 1159 2488 1159 1978
L 1159 0
L 581 0
L 581 3500
L 1159 3500
L 1159 2956
Q 1356 3278 1631 3431
Q 1906 3584 2284 3584
Q 2666 3584 2933 3390
Q 3200 3197 3328 2828
z
" transform="scale(0.015625)"/>
      <path id="DejaVuSans-74" d="M 1172 4494
L 1172 3500
L 2356 3500
L 2356 3053
L 1172 3053
L 1172 1153
Q 1172 725 1289 603
Q 1406 481 1766 481
L 2356 481
L 2356 0
L 1766 0
Q 1100 0 847 248
Q 594 497 594 1153
L 594 3053
L 172 3053
L 172 3500
L 594 3500
L 594 4494
L 1172 4494
z
" transform="scale(0.015625)"/>
      <path id="DejaVuSans-69" d="M 603 3500
L 1178 3500
L 1178 0
L 603 0
L 603 3500
z
M 603 4863
L 1178 4863
L 1178 4134
L 603 4134
L 603 4863
z
" transform="scale(0.015625)"/>
      <path id="DejaVuSans-63" d="M 3122 3366
L 3122 2828
Q 2878 2963 2633 3030
Q 2388 3097 2138 3097
Q 1578 3097 1268 2742
Q 959 2388 959 1747
Q 959 1106 1268 751
Q 1578 397 2138 397
Q 2388 397 2633 464
Q 2878 531 3122 666
L 3122 134
Q 2881 22 2623 -34
Q 2366 -91 2075 -91
Q 1284 -91 818 406
Q 353 903 353 1747
Q 353 2603 823 3093
Q 1294 3584 2113 3584
Q 2378 3584 2631 3529
Q 2884 3475 3122 3366
z
" transform="scale(0.015625)"/>
     </defs>
     <use xlink:href="#DejaVuSans-47"/>
     <use xlink:href="#DejaVuSans-72" x="77.490234"/>
     <use xlink:href="#DejaVuSans-61" x="118.603516"/>
     <use xlink:href="#DejaVuSans-70" x="179.882812"/>
     <use xlink:href="#DejaVuSans-68" x="243.359375"/>
     <use xlink:href="#DejaVuSans-20" x="306.738281"/>
     <use xlink:href="#DejaVuSans-6d" x="338.525391"/>
     <use xlink:href="#DejaVuSans-65" x="435.9375"/>
     <use xlink:href="#DejaVuSans-74" x="497.460938"/>
     <use xlink:href="#DejaVuSans-72" x="536.669922"/>
     <use xlink:href="#DejaVuSans-69" x="577.783203"/>
     <use xlink:href="#DejaVuSans-63" x="605.566406"/>
    </g>
   </g>
  </g>
  <g id="axes_2">
   <g id="patch_4">
    <path d="M 311.563636 201.6
L 565.2 201.6
L 565.2 50.4
L 311.563636 50.4
z
" style="fill: #ffffff"/>
   </g>
   <g id="patch_5">
    <path d="M 335.659091 152.116364
L 414.286364 152.116364
Q 420.627273 152.116364 420.627273 148.68
L 420.627273 103.32
Q 420.627273 99.883636 414.286364 99.883636
L 335.659091 99.883636
Q 329.318182 99.883636 329.318182 103.32
L 329.318182 148.68
Q 329.318182 152.116364 335.659091 152.116364
z
" clip-path="url(#pbdc78e7b22)" style="fill: #ffe9b3; stroke: #30475e; stroke-width: 1.5; stroke-linejoin: miter"/>
   </g>
   <g id="patch_6">
    <path d="M 462.477273 152.116364
L 541.104545 152.116364
Q 547.445455 152.116364 547.445455 148.68
L 547.445455 103.32
Q 547.445455 99.883636 541.104545 99.883636
L 462.477273 99.883636
Q 456.136364 99.883636 456.136364 103.32
L 456.136364 148.68
Q 456.136364 152.116364 462.477273 152.116364
z
" clip-path="url(#pbdc78e7b22)" style="fill: #f4f7fb; stroke: #30475e; stroke-width: 1.5; stroke-linejoin: miter"/>
   </g>
   <g id="matplotlib.axis_1"/>
   <g id="matplotlib.axis_2"/>
   <g id="line2d_2">
    <path d="M 311.563636 126
L 565.2 126
" clip-path="url(#pbdc78e7b22)" style="fill: none; stroke-dasharray: 3.7,1.6; stroke-dashoffset: 0; stroke: #999999"/>
   </g>
   <g id="text_6">
    <!-- x=0 -->
    <g transform="translate(365.675305 117.487074) scale(0.09 -0.09)">
     <defs>
      <path id="DejaVuSans-78" d="M 3513 3500
L 2247 1797
L 3578 0
L 2900 0
L 1881 1375
L 863 0
L 184 0
L 1544 1831
L 300 3500
L 978 3500
L 1906 2253
L 2834 3500
L 3513 3500
z
" transform="scale(0.015625)"/>
      <path id="DejaVuSans-3d" d="M 678 2906
L 4684 2906
L 4684 2381
L 678 2381
L 678 2906
z
M 678 1631
L 4684 1631
L 4684 1100
L 678 1100
L 678 1631
z
" transform="scale(0.015625)"/>
     </defs>
     <use xlink:href="#DejaVuSans-78"/>
     <use xlink:href="#DejaVuSans-3d" x="59.179688"/>
     <use xlink:href="#DejaVuSans-30" x="142.96875"/>
    </g>
   </g>
   <g id="text_7">
    <!-- y=0 -->
    <g transform="translate(365.675305 136.73071) scale(0.09 -0.09)">
     <defs>
      <path id="DejaVuSans-79" d="M 2059 -325
Q 1816 -950 1584 -1140
Q 1353 -1331 966 -1331
L 506 -1331
L 506 -850
L 844 -850
Q 1081 -850 1212 -737
Q 1344 -625 1503 -206
L 1606 56
L 191 3500
L 800 3500
L 1894 763
L 2988 3500
L 3597 3500
L 2059 -325
z
" transform="scale(0.015625)"/>
     </defs>
     <use xlink:href="#DejaVuSans-79"/>
     <use xlink:href="#DejaVuSans-3d" x="59.179688"/>
     <use xlink:href="#DejaVuSans-30" x="142.96875"/>
    </g>
   </g>
   <g id="text_8">
    <!-- #0 -->
    <g style="fill: #666666" transform="translate(369.075852 179.752955) scale(0.08 -0.08)">
     <defs>
      <path id="DejaVuSans-23" d="M 3272 2816
L 2363 2816
L 2100 1772
L 3016 1772
L 3272 2816
z
M 2803 4594
L 2478 3297
L 3391 3297
L 3719 4594
L 4219 4594
L 3897 3297
L 4872 3297
L 4872 2816
L 3775 2816
L 3519 1772
L 4513 1772
L 4513 1294
L 3397 1294
L 3072 0
L 2572 0
L 2894 1294
L 1978 1294
L 1656 0
L 1153 0
L 1478 1294
L 494 1294
L 494 1772
L 1594 1772
L 1856 2816
L 850 2816
L 850 3297
L 1978 3297
L 2297 4594
L 2803 4594
z
" transform="scale(0.015625)"/>
     </defs>
     <use xlink:href="#DejaVuSans-23"/>
     <use xlink:href="#DejaVuSans-30" x="83.789062"/>
    </g>
   </g>
   <g id="text_9">
    <!-- x=1 -->
    <g transform="translate(492.493487 117.487074) scale(0.09 -0.09)">
     <defs>
      <path id="DejaVuSans-31" d="M 794 531
L 1825 531
L 1825 4091
L 703 3866
L 703 4441
L 1819 4666
L 2450 4666
L 2450 531
L 3481 531
L 3481 0
L 794 0
L 794 531
z
" transform="scale(0.015625)"/>
     </defs>
     <use xlink:href="#DejaVuSans-78"/>
     <use xlink:href="#DejaVuSans-3d" x="59.179688"/>
     <use xlink:href="#DejaVuSans-31" x="142.96875"/>
    </g>
   </g>
   <g id="text_10">
    <!-- y=0 -->
    <g transform="translate(492.493487 136.73071) scale(0.09 -0.09)">
     <use xlink:href="#DejaVuSans-79"/>
     <use xlink:href="#DejaVuSans-3d" x="59.179688"/>
     <use xlink:href="#DejaVuSans-30" x="142.96875"/>
    </g>
   </g>
   <g id="text_11">
    <!-- #1 -->
    <g style="fill: #666666" transform="translate(495.894034 179.752955) scale(0.08 -0.08)">
     <use xlink:href="#DejaVuSans-23"/>
     <use xlink:href="#DejaVuSans-31" x="83.789062"/>
    </g>
   </g>
   <g id="text_12">
    <!-- Original sample $S$ -->
    <g transform="translate(385.461818 44.4) scale(0.12 -0.12)">
     <defs>
      <path id="DejaVuSans-4f" d="M 2522 4238
Q 1834 4238 1429 3725
Q 1025 3213 1025 2328
Q 1025 1447 1429 934
Q 1834 422 2522 422
Q 3209 422 3611 934
Q 4013 1447 4013 2328
Q 4013 3213 3611 3725
Q 3209 4238 2522 4238
z
M 2522 4750
Q 3503 4750 4090 4092
Q 4678 3434 4678 2328
Q 4678 1225 4090 567
Q 3503 -91 2522 -91
Q 1538 -91 948 565
Q 359 1222 359 2328
Q 359 3434 948 4092
Q 1538 4750 2522 4750
z
" transform="scale(0.015625)"/>
      <path id="DejaVuSans-67" d="M 2906 1791
Q 2906 2416 2648 2759
Q 2391 3103 1925 3103
Q 1463 3103 1205 2759
Q 947 2416 947 1791
Q 947 1169 1205 825
Q 1463 481 1925 481
Q 2391 481 2648 825
Q 2906 1169 2906 1791
z
M 3481 434
Q 3481 -459 3084 -895
Q 2688 -1331 1869 -1331
Q 1566 -1331 1297 -1286
Q 1028 -1241 775 -1147
L 775 -588
Q 1028 -725 1275 -790
Q 1522 -856 1778 -856
Q 2344 -856 2625 -561
Q 2906 -266 2906 331
L 2906 616
Q 2728 306 2450 153
Q 2172 0 1784 0
Q 1141 0 747 490
Q 353 981 353 1791
Q 353 2603 747 3093
Q 1141 3584 1784 3584
Q 2172 3584 2450 3431
Q 2728 3278 2906 2969
L 2906 3500
L 3481 3500
L 3481 434
z
" transform="scale(0.015625)"/>
      <path id="DejaVuSans-6e" d="M 3513 2113
L 3513 0
L 2938 0
L 2938 2094
Q 2938 2591 2744 2837
Q 2550 3084 2163 3084
Q 1697 3084 1428 2787
Q 1159 2491 1159 1978
L 1159 0
L 581 0
L 581 3500
L 1159 3500
L 1159 2956
Q 1366 3272 1645 3428
Q 1925 3584 2291 3584
Q 2894 3584 3203 3211
Q 3513 2838 3513 2113
z
" transform="scale(0.015625)"/>
      <path id="DejaVuSans-73" d="M 2834 3397
L 2834 2853
Q 2591 2978 2328 3040
Q 2066 3103 1784 3103
Q 1356 3103 1142 2972
Q 928 2841 928 2578
Q 928 2378 1081 2264
Q 1234 2150 1697 2047
L 1894 2003
Q 2506 1872 2764 1633
Q 3022 1394 3022 966
Q 3022 478 2636 193
Q 2250 -91 1575 -91
Q 1294 -91 989 -36
Q 684 19 347 128
L 347 722
Q 666 556 975 473
Q 1284 391 1588 391
Q 1994 391 2212 530
Q 2431 669 2431 922
Q 2431 1156 2273 1281
Q 2116 1406 1581 1522
L 1381 1569
Q 847 1681 609 1914
Q 372 2147 372 2553
Q 372 3047 722 3315
Q 1072 3584 1716 3584
Q 2034 3584 2315 3537
Q 2597 3491 2834 3397
z
" transform="scale(0.015625)"/>
      <path id="DejaVuSans-Oblique-53" d="M 3859 4513
L 3738 3897
Q 3422 4066 3111 4152
Q 2800 4238 2509 4238
Q 1944 4238 1609 3991
Q 1275 3744 1275 3334
Q 1275 3109 1398 2989
Q 1522 2869 2034 2731
L 2413 2638
Q 3053 2472 3303 2217
Q 3553 1963 3553 1503
Q 3553 797 2998 353
Q 2444 -91 1538 -91
Q 1166 -91 791 -17
Q 416 56 38 206
L 166 856
Q 513 641 861 531
Q 1209 422 1556 422
Q 2147 422 2503 684
Q 2859 947 2859 1369
Q 2859 1650 2717 1795
Q 2575 1941 2106 2059
L 1728 2156
Q 1081 2325 845 2545
Q 609 2766 609 3163
Q 609 3859 1145 4304
Q 1681 4750 2541 4750
Q 2875 4750 3203 4690
Q 3531 4631 3859 4513
z
" transform="scale(0.015625)"/>
     </defs>
     <use xlink:href="#DejaVuSans-4f" transform="translate(0 0.015625)"/>
     <use xlink:href="#DejaVuSans-72" transform="translate(78.710938 0.015625)"/>
     <use xlink:href="#DejaVuSans-69" transform="translate(119.824219 0.015625)"/>
     <use xlink:href="#DejaVuSans-67" transform="translate(147.607422 0.015625)"/>
     <use xlink:href="#DejaVuSans-69" transform="translate(211.083984 0.015625)"/>
     <use xlink:href="#DejaVuSans-6e" transform="translate(238.867188 0.015625)"/>
     <use xlink:href="#DejaVuSans-61" transform="translate(302.246094 0.015625)"/>
     <use xlink:href="#DejaVuSans-6c" transform="translate(363.525391 0.015625)"/>
     <use xlink:href="#DejaVuSans-20" transform="translate(391.308594 0.015625)"/>
     <use xlink:href="#DejaVuSans-73" transform="translate(423.095703 0.015625)"/>
     <use xlink:href="#DejaVuSans-61" transform="translate(475.195312 0.015625)"/>
     <use xlink:href="#DejaVuSans-6d" transform="translate(536.474609 0.015625)"/>
     <use xlink:href="#DejaVuSans-70" transform="translate(633.886719 0.015625)"/>
     <use xlink:href="#DejaVuSans-6c" transform="translate(697.363281 0.015625)"/>
     <use xlink:href="#DejaVuSans-65" transform="translate(725.146484 0.015625)"/>
     <use xlink:href="#DejaVuSans-20" transform="translate(786.669922 0.015625)"/>
     <use xlink:href="#DejaVuSans-Oblique-53" transform="translate(818.457031 0.015625)"/>
    </g>
   </g>
  </g>
  <g id="axes_3">
   <g id="patch_7">
    <path d="M 7.2 383.04
L 260.836364 383.04
L 260.836364 231.84
L 7.2 231.84
z
" style="fill: #ffffff"/>
   </g>
   <g id="patch_8">
    <path d="M 31.295455 333.556364
L 109.922727 333.556364
Q 116.263636 333.556364 116.263636 330.12
L 116.263636 284.76
Q 116.263636 281.323636 109.922727 281.323636
L 31.295455 281.323636
Q 24.954545 281.323636 24.954545 284.76
L 24.954545 330.12
Q 24.954545 333.556364 31.295455 333.556364
z
" clip-path="url(#p2bd1dcb3d3)" style="fill: #ffe9b3; stroke: #30475e; stroke-width: 1.5; stroke-linejoin: miter"/>
   </g>
   <g id="patch_9">
    <path d="M 158.113636 333.556364
L 236.740909 333.556364
Q 243.081818 333.556364 243.081818 330.12
L 243.081818 284.76
Q 243.081818 281.323636 236.740909 281.323636
L 158.113636 281.323636
Q 151.772727 281.323636 151.772727 284.76
L 151.772727 330.12
Q 151.772727 333.556364 158.113636 333.556364
z
" clip-path="url(#p2bd1dcb3d3)" style="fill: #f4f7fb; stroke: #30475e; stroke-width: 1.5; stroke-linejoin: miter"/>
   </g>
   <g id="matplotlib.axis_3"/>
   <g id="matplotlib.axis_4"/>
   <g id="line2d_3">
    <path d="M 7.2 307.44
L 260.836364 307.44
" clip-path="url(#p2bd1dcb3d3)" style="fill: none; stroke-dasharray: 3.7,1.6; stroke-dashoffset: 0; stroke: #999999"/>
   </g>
   <g id="text_13">
    <!-- x=0 -->
    <g transform="translate(61.311669 298.927074) scale(0.09 -0.09)">
     <use xlink:href="#DejaVuSans-78"/>
     <use xlink:href="#DejaVuSans-3d" x="59.179688"/>
     <use xlink:href="#DejaVuSans-30" x="142.96875"/>
    </g>
   </g>
   <g id="text_14">
    <!-- y=1 -->
    <g transform="translate(61.311669 318.17071) scale(0.09 -0.09)">
     <use xlink:href="#DejaVuSans-79"/>
     <use xlink:href="#DejaVuSans-3d" x="59.179688"/>
     <use xlink:href="#DejaVuSans-31" x="142.96875"/>
    </g>
   </g>
   <g id="text_15">
    <!-- #0 -->
    <g style="fill: #666666" transform="translate(64.712216 361.192955) scale(0.08 -0.08)">
     <use xlink:href="#DejaVuSans-23"/>
     <use xlink:href="#DejaVuSans-30" x="83.789062"/>
    </g>
   </g>
   <g id="text_16">
    <!-- x=1 -->
    <g transform="translate(188.129851 298.927074) scale(0.09 -0.09)">
     <use xlink:href="#DejaVuSans-78"/>
     <use xlink:href="#DejaVuSans-3d" x="59.179688"/>
     <use xlink:href="#DejaVuSans-31" x="142.96875"/>
    </g>
   </g>
   <g id="text_17">
    <!-- y=0 -->
    <g transform="translate(188.129851 318.17071) scale(0.09 -0.09)">
     <use xlink:href="#DejaVuSans-79"/>
     <use xlink:href="#DejaVuSans-3d" x="59.179688"/>
     <use xlink:href="#DejaVuSans-30" x="142.96875"/>
    </g>
   </g>
   <g id="text_18">
    <!-- #1 -->
    <g style="fill: #666666" transform="translate(191.530398 361.192955) scale(0.08 -0.08)">
     <use xlink:href="#DejaVuSans-23"/>
     <use xlink:href="#DejaVuSans-31" x="83.789062"/>
    </g>
   </g>
   <g id="text_19">
    <!-- Replace-one sample $S^{0\leftarrow(a,1)}$ -->
    <g transform="translate(48.098182 225.84) scale(0.12 -0.12)">
     <defs>
      <path id="DejaVuSans-52" d="M 2841 2188
Q 3044 2119 3236 1894
Q 3428 1669 3622 1275
L 4263 0
L 3584 0
L 2988 1197
Q 2756 1666 2539 1819
Q 2322 1972 1947 1972
L 1259 1972
L 1259 0
L 628 0
L 628 4666
L 2053 4666
Q 2853 4666 3247 4331
Q 3641 3997 3641 3322
Q 3641 2881 3436 2590
Q 3231 2300 2841 2188
z
M 1259 4147
L 1259 2491
L 2053 2491
Q 2509 2491 2742 2702
Q 2975 2913 2975 3322
Q 2975 3731 2742 3939
Q 2509 4147 2053 4147
L 1259 4147
z
" transform="scale(0.015625)"/>
      <path id="DejaVuSans-2d" d="M 313 2009
L 1997 2009
L 1997 1497
L 313 1497
L 313 2009
z
" transform="scale(0.015625)"/>
      <path id="DejaVuSans-6f" d="M 1959 3097
Q 1497 3097 1228 2736
Q 959 2375 959 1747
Q 959 1119 1226 758
Q 1494 397 1959 397
Q 2419 397 2687 759
Q 2956 1122 2956 1747
Q 2956 2369 2687 2733
Q 2419 3097 1959 3097
z
M 1959 3584
Q 2709 3584 3137 3096
Q 3566 2609 3566 1747
Q 3566 888 3137 398
Q 2709 -91 1959 -91
Q 1206 -91 779 398
Q 353 888 353 1747
Q 353 2609 779 3096
Q 1206 3584 1959 3584
z
" transform="scale(0.015625)"/>
      <path id="DejaVuSans-2190" d="M 313 1866
L 313 2147
L 1541 3375
L 1916 3000
L 1188 2272
L 4997 2272
L 4997 1741
L 1188 1741
L 1916 1013
L 1541 638
L 313 1866
z
" transform="scale(0.015625)"/>
      <path id="DejaVuSans-28" d="M 1984 4856
Q 1566 4138 1362 3434
Q 1159 2731 1159 2009
Q 1159 1288 1364 580
Q 1569 -128 1984 -844
L 1484 -844
Q 1016 -109 783 600
Q 550 1309 550 2009
Q 550 2706 781 3412
Q 1013 4119 1484 4856
L 1984 4856
z
" transform="scale(0.015625)"/>
      <path id="DejaVuSans-Oblique-61" d="M 3438 1997
L 3047 0
L 2472 0
L 2578 531
Q 2325 219 2001 64
Q 1678 -91 1281 -91
Q 834 -91 548 182
Q 263 456 263 884
Q 263 1497 752 1853
Q 1241 2209 2100 2209
L 2900 2209
L 2931 2363
Q 2938 2388 2941 2417
Q 2944 2447 2944 2509
Q 2944 2788 2717 2942
Q 2491 3097 2081 3097
Q 1800 3097 1504 3025
Q 1209 2953 897 2809
L 997 3341
Q 1322 3463 1633 3523
Q 1944 3584 2234 3584
Q 2853 3584 3176 3315
Q 3500 3047 3500 2534
Q 3500 2431 3484 2292
Q 3469 2153 3438 1997
z
M 2816 1759
L 2241 1759
Q 1534 1759 1195 1570
Q 856 1381 856 984
Q 856 709 1029 553
Q 1203 397 1509 397
Q 1978 397 2328 733
Q 2678 1069 2791 1631
L 2816 1759
z
" transform="scale(0.015625)"/>
      <path id="DejaVuSans-2c" d="M 750 794
L 1409 794
L 1409 256
L 897 -744
L 494 -744
L 750 256
L 750 794
z
" transform="scale(0.015625)"/>
      <path id="DejaVuSans-29" d="M 513 4856
L 1013 4856
Q 1481 4119 1714 3412
Q 1947 2706 1947 2009
Q 1947 1309 1714 600
Q 1481 -109 1013 -844
L 513 -844
Q 928 -128 1133 580
Q 1338 1288 1338 2009
Q 1338 2731 1133 3434
Q 928 4138 513 4856
z
" transform="scale(0.015625)"/>
     </defs>
     <use xlink:href="#DejaVuSans-52" transform="translate(0 0.60625)"/>
     <use xlink:href="#DejaVuSans-65" transform="translate(69.482422 0.60625)"/>
     <use xlink:href="#DejaVuSans-70" transform="translate(131.005859 0.60625)"/>
     <use xlink:href="#DejaVuSans-6c" transform="translate(194.482422 0.60625)"/>
     <use xlink:href="#DejaVuSans-61" transform="translate(222.265625 0.60625)"/>
     <use xlink:href="#DejaVuSans-63" transform="translate(283.544922 0.60625)"/>
     <use xlink:href="#DejaVuSans-65" transform="translate(338.525391 0.60625)"/>
     <use xlink:href="#DejaVuSans-2d" transform="translate(400.048828 0.60625)"/>
     <use xlink:href="#DejaVuSans-6f" transform="translate(436.132812 0.60625)"/>
     <use xlink:href="#DejaVuSans-6e" transform="translate(497.314453 0.60625)"/>
     <use xlink:href="#DejaVuSans-65" transform="translate(560.693359 0.60625)"/>
     <use xlink:href="#DejaVuSans-20" transform="translate(622.216797 0.60625)"/>
     <use xlink:href="#DejaVuSans-73" transform="translate(654.003906 0.60625)"/>
     <use xlink:href="#DejaVuSans-61" transform="translate(706.103516 0.60625)"/>
     <use xlink:href="#DejaVuSans-6d" transform="translate(767.382812 0.60625)"/>
     <use xlink:href="#DejaVuSans-70" transform="translate(864.794922 0.60625)"/>
     <use xlink:href="#DejaVuSans-6c" transform="translate(928.271484 0.60625)"/>
     <use xlink:href="#DejaVuSans-65" transform="translate(956.054688 0.60625)"/>
     <use xlink:href="#DejaVuSans-20" transform="translate(1017.578125 0.60625)"/>
     <use xlink:href="#DejaVuSans-Oblique-53" transform="translate(1049.365234 0.60625)"/>
     <use xlink:href="#DejaVuSans-30" transform="translate(1120.042318 38.8875) scale(0.7)"/>
     <use xlink:href="#DejaVuSans-2190" transform="translate(1178.216146 38.8875) scale(0.7)"/>
     <use xlink:href="#DejaVuSans-28" transform="translate(1250.506185 38.8875) scale(0.7)"/>
     <use xlink:href="#DejaVuSans-Oblique-61" transform="translate(1277.815755 38.8875) scale(0.7)"/>
     <use xlink:href="#DejaVuSans-2c" transform="translate(1320.711263 38.8875) scale(0.7)"/>
     <use xlink:href="#DejaVuSans-31" transform="translate(1356.599935 38.8875) scale(0.7)"/>
     <use xlink:href="#DejaVuSans-29" transform="translate(1401.136068 38.8875) scale(0.7)"/>
    </g>
   </g>
  </g>
  <g id="axes_4">
   <g id="text_20">
    <!-- At query $a$ with evaluation label $0$: -->
    <g transform="translate(336.927273 265.104) scale(0.11 -0.11)">
     <defs>
      <path id="DejaVuSans-Bold-41" d="M 3419 850
L 1538 850
L 1241 0
L 31 0
L 1759 4666
L 3194 4666
L 4922 0
L 3713 0
L 3419 850
z
M 1838 1716
L 3116 1716
L 2478 3572
L 1838 1716
z
" transform="scale(0.015625)"/>
      <path id="DejaVuSans-Bold-74" d="M 1759 4494
L 1759 3500
L 2913 3500
L 2913 2700
L 1759 2700
L 1759 1216
Q 1759 972 1856 886
Q 1953 800 2241 800
L 2816 800
L 2816 0
L 1856 0
Q 1194 0 917 276
Q 641 553 641 1216
L 641 2700
L 84 2700
L 84 3500
L 641 3500
L 641 4494
L 1759 4494
z
" transform="scale(0.015625)"/>
      <path id="DejaVuSans-Bold-20" transform="scale(0.015625)"/>
      <path id="DejaVuSans-Bold-71" d="M 2181 2772
Q 1825 2772 1636 2509
Q 1447 2247 1447 1747
Q 1447 1247 1636 984
Q 1825 722 2181 722
Q 2541 722 2730 984
Q 2919 1247 2919 1747
Q 2919 2247 2730 2509
Q 2541 2772 2181 2772
z
M 2919 506
Q 2688 197 2409 53
Q 2131 -91 1766 -91
Q 1119 -91 703 423
Q 288 938 288 1747
Q 288 2556 703 3067
Q 1119 3578 1766 3578
Q 2131 3578 2409 3434
Q 2688 3291 2919 2981
L 2919 3500
L 4044 3500
L 4044 -1331
L 2919 -1331
L 2919 506
z
" transform="scale(0.015625)"/>
      <path id="DejaVuSans-Bold-75" d="M 500 1363
L 500 3500
L 1625 3500
L 1625 3150
Q 1625 2866 1622 2436
Q 1619 2006 1619 1863
Q 1619 1441 1641 1255
Q 1663 1069 1716 984
Q 1784 875 1895 815
Q 2006 756 2150 756
Q 2500 756 2700 1025
Q 2900 1294 2900 1772
L 2900 3500
L 4019 3500
L 4019 0
L 2900 0
L 2900 506
Q 2647 200 2364 54
Q 2081 -91 1741 -91
Q 1134 -91 817 281
Q 500 653 500 1363
z
" transform="scale(0.015625)"/>
      <path id="DejaVuSans-Bold-65" d="M 4031 1759
L 4031 1441
L 1416 1441
Q 1456 1047 1700 850
Q 1944 653 2381 653
Q 2734 653 3104 758
Q 3475 863 3866 1075
L 3866 213
Q 3469 63 3072 -14
Q 2675 -91 2278 -91
Q 1328 -91 801 392
Q 275 875 275 1747
Q 275 2603 792 3093
Q 1309 3584 2216 3584
Q 3041 3584 3536 3087
Q 4031 2591 4031 1759
z
M 2881 2131
Q 2881 2450 2695 2645
Q 2509 2841 2209 2841
Q 1884 2841 1681 2658
Q 1478 2475 1428 2131
L 2881 2131
z
" transform="scale(0.015625)"/>
      <path id="DejaVuSans-Bold-72" d="M 3138 2547
Q 2991 2616 2845 2648
Q 2700 2681 2553 2681
Q 2122 2681 1889 2404
Q 1656 2128 1656 1613
L 1656 0
L 538 0
L 538 3500
L 1656 3500
L 1656 2925
Q 1872 3269 2151 3426
Q 2431 3584 2822 3584
Q 2878 3584 2943 3579
Q 3009 3575 3134 3559
L 3138 2547
z
" transform="scale(0.015625)"/>
      <path id="DejaVuSans-Bold-79" d="M 78 3500
L 1197 3500
L 2138 1125
L 2938 3500
L 4056 3500
L 2584 -331
Q 2363 -916 2067 -1148
Q 1772 -1381 1288 -1381
L 641 -1381
L 641 -647
L 991 -647
Q 1275 -647 1404 -556
Q 1534 -466 1606 -231
L 1638 -134
L 78 3500
z
" transform="scale(0.015625)"/>
      <path id="DejaVuSans-Bold-77" d="M 225 3500
L 1313 3500
L 1900 1088
L 2491 3500
L 3425 3500
L 4013 1113
L 4603 3500
L 5691 3500
L 4769 0
L 3547 0
L 2956 2406
L 2369 0
L 1147 0
L 225 3500
z
" transform="scale(0.015625)"/>
      <path id="DejaVuSans-Bold-69" d="M 538 3500
L 1656 3500
L 1656 0
L 538 0
L 538 3500
z
M 538 4863
L 1656 4863
L 1656 3950
L 538 3950
L 538 4863
z
" transform="scale(0.015625)"/>
      <path id="DejaVuSans-Bold-68" d="M 4056 2131
L 4056 0
L 2931 0
L 2931 347
L 2931 1625
Q 2931 2084 2911 2256
Q 2891 2428 2841 2509
Q 2775 2619 2662 2680
Q 2550 2741 2406 2741
Q 2056 2741 1856 2470
Q 1656 2200 1656 1722
L 1656 0
L 538 0
L 538 4863
L 1656 4863
L 1656 2988
Q 1909 3294 2193 3439
Q 2478 3584 2822 3584
Q 3428 3584 3742 3212
Q 4056 2841 4056 2131
z
" transform="scale(0.015625)"/>
      <path id="DejaVuSans-Bold-76" d="M 97 3500
L 1216 3500
L 2088 1081
L 2956 3500
L 4078 3500
L 2700 0
L 1472 0
L 97 3500
z
" transform="scale(0.015625)"/>
      <path id="DejaVuSans-Bold-61" d="M 2106 1575
Q 1756 1575 1579 1456
Q 1403 1338 1403 1106
Q 1403 894 1545 773
Q 1688 653 1941 653
Q 2256 653 2472 879
Q 2688 1106 2688 1447
L 2688 1575
L 2106 1575
z
M 3816 1997
L 3816 0
L 2688 0
L 2688 519
Q 2463 200 2181 54
Q 1900 -91 1497 -91
Q 953 -91 614 226
Q 275 544 275 1050
Q 275 1666 698 1953
Q 1122 2241 2028 2241
L 2688 2241
L 2688 2328
Q 2688 2594 2478 2717
Q 2269 2841 1825 2841
Q 1466 2841 1156 2769
Q 847 2697 581 2553
L 581 3406
Q 941 3494 1303 3539
Q 1666 3584 2028 3584
Q 2975 3584 3395 3211
Q 3816 2838 3816 1997
z
" transform="scale(0.015625)"/>
      <path id="DejaVuSans-Bold-6c" d="M 538 4863
L 1656 4863
L 1656 0
L 538 0
L 538 4863
z
" transform="scale(0.015625)"/>
      <path id="DejaVuSans-Bold-6f" d="M 2203 2784
Q 1831 2784 1636 2517
Q 1441 2250 1441 1747
Q 1441 1244 1636 976
Q 1831 709 2203 709
Q 2569 709 2762 976
Q 2956 1244 2956 1747
Q 2956 2250 2762 2517
Q 2569 2784 2203 2784
z
M 2203 3584
Q 3106 3584 3614 3096
Q 4122 2609 4122 1747
Q 4122 884 3614 396
Q 3106 -91 2203 -91
Q 1297 -91 786 396
Q 275 884 275 1747
Q 275 2609 786 3096
Q 1297 3584 2203 3584
z
" transform="scale(0.015625)"/>
      <path id="DejaVuSans-Bold-6e" d="M 4056 2131
L 4056 0
L 2931 0
L 2931 347
L 2931 1631
Q 2931 2084 2911 2256
Q 2891 2428 2841 2509
Q 2775 2619 2662 2680
Q 2550 2741 2406 2741
Q 2056 2741 1856 2470
Q 1656 2200 1656 1722
L 1656 0
L 538 0
L 538 3500
L 1656 3500
L 1656 2988
Q 1909 3294 2193 3439
Q 2478 3584 2822 3584
Q 3428 3584 3742 3212
Q 4056 2841 4056 2131
z
" transform="scale(0.015625)"/>
      <path id="DejaVuSans-Bold-62" d="M 2400 722
Q 2759 722 2948 984
Q 3138 1247 3138 1747
Q 3138 2247 2948 2509
Q 2759 2772 2400 2772
Q 2041 2772 1848 2508
Q 1656 2244 1656 1747
Q 1656 1250 1848 986
Q 2041 722 2400 722
z
M 1656 2988
Q 1888 3294 2169 3439
Q 2450 3584 2816 3584
Q 3463 3584 3878 3070
Q 4294 2556 4294 1747
Q 4294 938 3878 423
Q 3463 -91 2816 -91
Q 2450 -91 2169 54
Q 1888 200 1656 506
L 1656 0
L 538 0
L 538 4863
L 1656 4863
L 1656 2988
z
" transform="scale(0.015625)"/>
      <path id="DejaVuSans-Bold-3a" d="M 716 3500
L 1844 3500
L 1844 2291
L 716 2291
L 716 3500
z
M 716 1209
L 1844 1209
L 1844 0
L 716 0
L 716 1209
z
" transform="scale(0.015625)"/>
     </defs>
     <use xlink:href="#DejaVuSans-Bold-41" transform="translate(0 0.015625)"/>
     <use xlink:href="#DejaVuSans-Bold-74" transform="translate(77.392578 0.015625)"/>
     <use xlink:href="#DejaVuSans-Bold-20" transform="translate(125.195312 0.015625)"/>
     <use xlink:href="#DejaVuSans-Bold-71" transform="translate(160.009766 0.015625)"/>
     <use xlink:href="#DejaVuSans-Bold-75" transform="translate(231.591797 0.015625)"/>
     <use xlink:href="#DejaVuSans-Bold-65" transform="translate(302.783203 0.015625)"/>
     <use xlink:href="#DejaVuSans-Bold-72" transform="translate(370.605469 0.015625)"/>
     <use xlink:href="#DejaVuSans-Bold-79" transform="translate(419.921875 0.015625)"/>
     <use xlink:href="#DejaVuSans-Bold-20" transform="translate(485.107422 0.015625)"/>
     <use xlink:href="#DejaVuSans-Oblique-61" transform="translate(519.921875 0.015625)"/>
     <use xlink:href="#DejaVuSans-Bold-20" transform="translate(581.201172 0.015625)"/>
     <use xlink:href="#DejaVuSans-Bold-77" transform="translate(616.015625 0.015625)"/>
     <use xlink:href="#DejaVuSans-Bold-69" transform="translate(708.398438 0.015625)"/>
     <use xlink:href="#DejaVuSans-Bold-74" transform="translate(742.675781 0.015625)"/>
     <use xlink:href="#DejaVuSans-Bold-68" transform="translate(790.478516 0.015625)"/>
     <use xlink:href="#DejaVuSans-Bold-20" transform="translate(861.669922 0.015625)"/>
     <use xlink:href="#DejaVuSans-Bold-65" transform="translate(896.484375 0.015625)"/>
     <use xlink:href="#DejaVuSans-Bold-76" transform="translate(964.306641 0.015625)"/>
     <use xlink:href="#DejaVuSans-Bold-61" transform="translate(1029.492188 0.015625)"/>
     <use xlink:href="#DejaVuSans-Bold-6c" transform="translate(1096.972656 0.015625)"/>
     <use xlink:href="#DejaVuSans-Bold-75" transform="translate(1131.25 0.015625)"/>
     <use xlink:href="#DejaVuSans-Bold-61" transform="translate(1202.441406 0.015625)"/>
     <use xlink:href="#DejaVuSans-Bold-74" transform="translate(1269.921875 0.015625)"/>
     <use xlink:href="#DejaVuSans-Bold-69" transform="translate(1317.724609 0.015625)"/>
     <use xlink:href="#DejaVuSans-Bold-6f" transform="translate(1352.001953 0.015625)"/>
     <use xlink:href="#DejaVuSans-Bold-6e" transform="translate(1420.703125 0.015625)"/>
     <use xlink:href="#DejaVuSans-Bold-20" transform="translate(1491.894531 0.015625)"/>
     <use xlink:href="#DejaVuSans-Bold-6c" transform="translate(1526.708984 0.015625)"/>
     <use xlink:href="#DejaVuSans-Bold-61" transform="translate(1560.986328 0.015625)"/>
     <use xlink:href="#DejaVuSans-Bold-62" transform="translate(1628.466797 0.015625)"/>
     <use xlink:href="#DejaVuSans-Bold-65" transform="translate(1700.048828 0.015625)"/>
     <use xlink:href="#DejaVuSans-Bold-6c" transform="translate(1767.871094 0.015625)"/>
     <use xlink:href="#DejaVuSans-Bold-20" transform="translate(1802.148438 0.015625)"/>
     <use xlink:href="#DejaVuSans-30" transform="translate(1836.962891 0.015625)"/>
     <use xlink:href="#DejaVuSans-Bold-3a" transform="translate(1900.585938 0.015625)"/>
    </g>
   </g>
   <g id="text_21">
    <!-- Original 1-NN prediction: $0$ -->
    <g transform="translate(336.927273 298.368) scale(0.1 -0.1)">
     <defs>
      <path id="DejaVuSans-4e" d="M 628 4666
L 1478 4666
L 3547 763
L 3547 4666
L 4159 4666
L 4159 0
L 3309 0
L 1241 3903
L 1241 0
L 628 0
L 628 4666
z
" transform="scale(0.015625)"/>
      <path id="DejaVuSans-64" d="M 2906 2969
L 2906 4863
L 3481 4863
L 3481 0
L 2906 0
L 2906 525
Q 2725 213 2448 61
Q 2172 -91 1784 -91
Q 1150 -91 751 415
Q 353 922 353 1747
Q 353 2572 751 3078
Q 1150 3584 1784 3584
Q 2172 3584 2448 3432
Q 2725 3281 2906 2969
z
M 947 1747
Q 947 1113 1208 752
Q 1469 391 1925 391
Q 2381 391 2643 752
Q 2906 1113 2906 1747
Q 2906 2381 2643 2742
Q 2381 3103 1925 3103
Q 1469 3103 1208 2742
Q 947 2381 947 1747
z
" transform="scale(0.015625)"/>
      <path id="DejaVuSans-3a" d="M 750 794
L 1409 794
L 1409 0
L 750 0
L 750 794
z
M 750 3309
L 1409 3309
L 1409 2516
L 750 2516
L 750 3309
z
" transform="scale(0.015625)"/>
     </defs>
     <use xlink:href="#DejaVuSans-4f" transform="translate(0 0.015625)"/>
     <use xlink:href="#DejaVuSans-72" transform="translate(78.710938 0.015625)"/>
     <use xlink:href="#DejaVuSans-69" transform="translate(119.824219 0.015625)"/>
     <use xlink:href="#DejaVuSans-67" transform="translate(147.607422 0.015625)"/>
     <use xlink:href="#DejaVuSans-69" transform="translate(211.083984 0.015625)"/>
     <use xlink:href="#DejaVuSans-6e" transform="translate(238.867188 0.015625)"/>
     <use xlink:href="#DejaVuSans-61" transform="translate(302.246094 0.015625)"/>
     <use xlink:href="#DejaVuSans-6c" transform="translate(363.525391 0.015625)"/>
     <use xlink:href="#DejaVuSans-20" transform="translate(391.308594 0.015625)"/>
     <use xlink:href="#DejaVuSans-31" transform="translate(423.095703 0.015625)"/>
     <use xlink:href="#DejaVuSans-2d" transform="translate(486.71875 0.015625)"/>
     <use xlink:href="#DejaVuSans-4e" transform="translate(522.802734 0.015625)"/>
     <use xlink:href="#DejaVuSans-4e" transform="translate(597.607422 0.015625)"/>
     <use xlink:href="#DejaVuSans-20" transform="translate(672.412109 0.015625)"/>
     <use xlink:href="#DejaVuSans-70" transform="translate(704.199219 0.015625)"/>
     <use xlink:href="#DejaVuSans-72" transform="translate(767.675781 0.015625)"/>
     <use xlink:href="#DejaVuSans-65" transform="translate(808.789062 0.015625)"/>
     <use xlink:href="#DejaVuSans-64" transform="translate(870.3125 0.015625)"/>
     <use xlink:href="#DejaVuSans-69" transform="translate(933.789062 0.015625)"/>
     <use xlink:href="#DejaVuSans-63" transform="translate(961.572266 0.015625)"/>
     <use xlink:href="#DejaVuSans-74" transform="translate(1016.552734 0.015625)"/>
     <use xlink:href="#DejaVuSans-69" transform="translate(1055.761719 0.015625)"/>
     <use xlink:href="#DejaVuSans-6f" transform="translate(1083.544922 0.015625)"/>
     <use xlink:href="#DejaVuSans-6e" transform="translate(1144.726562 0.015625)"/>
     <use xlink:href="#DejaVuSans-3a" transform="translate(1208.105469 0.015625)"/>
     <use xlink:href="#DejaVuSans-20" transform="translate(1241.796875 0.015625)"/>
     <use xlink:href="#DejaVuSans-30" transform="translate(1273.583984 0.015625)"/>
    </g>
   </g>
   <g id="text_22">
    <!-- After replace-one: $1$ -->
    <g transform="translate(336.927273 322.56) scale(0.1 -0.1)">
     <defs>
      <path id="DejaVuSans-41" d="M 2188 4044
L 1331 1722
L 3047 1722
L 2188 4044
z
M 1831 4666
L 2547 4666
L 4325 0
L 3669 0
L 3244 1197
L 1141 1197
L 716 0
L 50 0
L 1831 4666
z
" transform="scale(0.015625)"/>
      <path id="DejaVuSans-66" d="M 2375 4863
L 2375 4384
L 1825 4384
Q 1516 4384 1395 4259
Q 1275 4134 1275 3809
L 1275 3500
L 2222 3500
L 2222 3053
L 1275 3053
L 1275 0
L 697 0
L 697 3053
L 147 3053
L 147 3500
L 697 3500
L 697 3744
Q 697 4328 969 4595
Q 1241 4863 1831 4863
L 2375 4863
z
" transform="scale(0.015625)"/>
     </defs>
     <use xlink:href="#DejaVuSans-41" transform="translate(0 0.015625)"/>
     <use xlink:href="#DejaVuSans-66" transform="translate(68.408203 0.015625)"/>
     <use xlink:href="#DejaVuSans-74" transform="translate(103.613281 0.015625)"/>
     <use xlink:href="#DejaVuSans-65" transform="translate(142.822266 0.015625)"/>
     <use xlink:href="#DejaVuSans-72" transform="translate(204.345703 0.015625)"/>
     <use xlink:href="#DejaVuSans-20" transform="translate(245.458984 0.015625)"/>
     <use xlink:href="#DejaVuSans-72" transform="translate(277.246094 0.015625)"/>
     <use xlink:href="#DejaVuSans-65" transform="translate(318.359375 0.015625)"/>
     <use xlink:href="#DejaVuSans-70" transform="translate(379.882812 0.015625)"/>
     <use xlink:href="#DejaVuSans-6c" transform="translate(443.359375 0.015625)"/>
     <use xlink:href="#DejaVuSans-61" transform="translate(471.142578 0.015625)"/>
     <use xlink:href="#DejaVuSans-63" transform="translate(532.421875 0.015625)"/>
     <use xlink:href="#DejaVuSans-65" transform="translate(587.402344 0.015625)"/>
     <use xlink:href="#DejaVuSans-2d" transform="translate(648.925781 0.015625)"/>
     <use xlink:href="#DejaVuSans-6f" transform="translate(685.009766 0.015625)"/>
     <use xlink:href="#DejaVuSans-6e" transform="translate(746.191406 0.015625)"/>
     <use xlink:href="#DejaVuSans-65" transform="translate(809.570312 0.015625)"/>
     <use xlink:href="#DejaVuSans-3a" transform="translate(871.09375 0.015625)"/>
     <use xlink:href="#DejaVuSans-20" transform="translate(904.785156 0.015625)"/>
     <use xlink:href="#DejaVuSans-31" transform="translate(936.572266 0.015625)"/>
    </g>
   </g>
   <g id="text_23">
    <!-- LOO maximum remains $0$ on this sample. -->
    <g transform="translate(336.927273 346.752) scale(0.1 -0.1)">
     <defs>
      <path id="DejaVuSans-4c" d="M 628 4666
L 1259 4666
L 1259 531
L 3531 531
L 3531 0
L 628 0
L 628 4666
z
" transform="scale(0.015625)"/>
      <path id="DejaVuSans-75" d="M 544 1381
L 544 3500
L 1119 3500
L 1119 1403
Q 1119 906 1312 657
Q 1506 409 1894 409
Q 2359 409 2629 706
Q 2900 1003 2900 1516
L 2900 3500
L 3475 3500
L 3475 0
L 2900 0
L 2900 538
Q 2691 219 2414 64
Q 2138 -91 1772 -91
Q 1169 -91 856 284
Q 544 659 544 1381
z
M 1991 3584
L 1991 3584
z
" transform="scale(0.015625)"/>
      <path id="DejaVuSans-2e" d="M 684 794
L 1344 794
L 1344 0
L 684 0
L 684 794
z
" transform="scale(0.015625)"/>
     </defs>
     <use xlink:href="#DejaVuSans-4c" transform="translate(0 0.015625)"/>
     <use xlink:href="#DejaVuSans-4f" transform="translate(55.712891 0.015625)"/>
     <use xlink:href="#DejaVuSans-4f" transform="translate(134.423828 0.015625)"/>
     <use xlink:href="#DejaVuSans-20" transform="translate(213.134766 0.015625)"/>
     <use xlink:href="#DejaVuSans-6d" transform="translate(244.921875 0.015625)"/>
     <use xlink:href="#DejaVuSans-61" transform="translate(342.333984 0.015625)"/>
     <use xlink:href="#DejaVuSans-78" transform="translate(403.613281 0.015625)"/>
     <use xlink:href="#DejaVuSans-69" transform="translate(462.792969 0.015625)"/>
     <use xlink:href="#DejaVuSans-6d" transform="translate(490.576172 0.015625)"/>
     <use xlink:href="#DejaVuSans-75" transform="translate(587.988281 0.015625)"/>
     <use xlink:href="#DejaVuSans-6d" transform="translate(651.367188 0.015625)"/>
     <use xlink:href="#DejaVuSans-20" transform="translate(748.779297 0.015625)"/>
     <use xlink:href="#DejaVuSans-72" transform="translate(780.566406 0.015625)"/>
     <use xlink:href="#DejaVuSans-65" transform="translate(821.679688 0.015625)"/>
     <use xlink:href="#DejaVuSans-6d" transform="translate(883.203125 0.015625)"/>
     <use xlink:href="#DejaVuSans-61" transform="translate(980.615234 0.015625)"/>
     <use xlink:href="#DejaVuSans-69" transform="translate(1041.894531 0.015625)"/>
     <use xlink:href="#DejaVuSans-6e" transform="translate(1069.677734 0.015625)"/>
     <use xlink:href="#DejaVuSans-73" transform="translate(1133.056641 0.015625)"/>
     <use xlink:href="#DejaVuSans-20" transform="translate(1185.15625 0.015625)"/>
     <use xlink:href="#DejaVuSans-30" transform="translate(1216.943359 0.015625)"/>
     <use xlink:href="#DejaVuSans-20" transform="translate(1280.566406 0.015625)"/>
     <use xlink:href="#DejaVuSans-6f" transform="translate(1312.353516 0.015625)"/>
     <use xlink:href="#DejaVuSans-6e" transform="translate(1373.535156 0.015625)"/>
     <use xlink:href="#DejaVuSans-20" transform="translate(1436.914062 0.015625)"/>
     <use xlink:href="#DejaVuSans-74" transform="translate(1468.701172 0.015625)"/>
     <use xlink:href="#DejaVuSans-68" transform="translate(1507.910156 0.015625)"/>
     <use xlink:href="#DejaVuSans-69" transform="translate(1571.289062 0.015625)"/>
     <use xlink:href="#DejaVuSans-73" transform="translate(1599.072266 0.015625)"/>
     <use xlink:href="#DejaVuSans-20" transform="translate(1651.171875 0.015625)"/>
     <use xlink:href="#DejaVuSans-73" transform="translate(1682.958984 0.015625)"/>
     <use xlink:href="#DejaVuSans-61" transform="translate(1735.058594 0.015625)"/>
     <use xlink:href="#DejaVuSans-6d" transform="translate(1796.337891 0.015625)"/>
     <use xlink:href="#DejaVuSans-70" transform="translate(1893.75 0.015625)"/>
     <use xlink:href="#DejaVuSans-6c" transform="translate(1957.226562 0.015625)"/>
     <use xlink:href="#DejaVuSans-65" transform="translate(1985.009766 0.015625)"/>
     <use xlink:href="#DejaVuSans-2e" transform="translate(2046.533203 0.015625)"/>
    </g>
   </g>
   <g id="text_24">
    <!-- This is an explicit witness, not a theorem of minimality. -->
    <g style="fill: #9b2c2c" transform="translate(336.927273 370.944) scale(0.1 -0.1)">
     <defs>
      <path id="DejaVuSans-54" d="M -19 4666
L 3928 4666
L 3928 4134
L 2272 4134
L 2272 0
L 1638 0
L 1638 4134
L -19 4134
L -19 4666
z
" transform="scale(0.015625)"/>
      <path id="DejaVuSans-77" d="M 269 3500
L 844 3500
L 1563 769
L 2278 3500
L 2956 3500
L 3675 769
L 4391 3500
L 4966 3500
L 4050 0
L 3372 0
L 2619 2869
L 1863 0
L 1184 0
L 269 3500
z
" transform="scale(0.015625)"/>
     </defs>
     <use xlink:href="#DejaVuSans-54"/>
     <use xlink:href="#DejaVuSans-68" x="61.083984"/>
     <use xlink:href="#DejaVuSans-69" x="124.462891"/>
     <use xlink:href="#DejaVuSans-73" x="152.246094"/>
     <use xlink:href="#DejaVuSans-20" x="204.345703"/>
     <use xlink:href="#DejaVuSans-69" x="236.132812"/>
     <use xlink:href="#DejaVuSans-73" x="263.916016"/>
     <use xlink:href="#DejaVuSans-20" x="316.015625"/>
     <use xlink:href="#DejaVuSans-61" x="347.802734"/>
     <use xlink:href="#DejaVuSans-6e" x="409.082031"/>
     <use xlink:href="#DejaVuSans-20" x="472.460938"/>
     <use xlink:href="#DejaVuSans-65" x="504.248047"/>
     <use xlink:href="#DejaVuSans-78" x="564.021484"/>
     <use xlink:href="#DejaVuSans-70" x="623.201172"/>
     <use xlink:href="#DejaVuSans-6c" x="686.677734"/>
     <use xlink:href="#DejaVuSans-69" x="714.460938"/>
     <use xlink:href="#DejaVuSans-63" x="742.244141"/>
     <use xlink:href="#DejaVuSans-69" x="797.224609"/>
     <use xlink:href="#DejaVuSans-74" x="825.007812"/>
     <use xlink:href="#DejaVuSans-20" x="864.216797"/>
     <use xlink:href="#DejaVuSans-77" x="896.003906"/>
     <use xlink:href="#DejaVuSans-69" x="977.791016"/>
     <use xlink:href="#DejaVuSans-74" x="1005.574219"/>
     <use xlink:href="#DejaVuSans-6e" x="1044.783203"/>
     <use xlink:href="#DejaVuSans-65" x="1108.162109"/>
     <use xlink:href="#DejaVuSans-73" x="1169.685547"/>
     <use xlink:href="#DejaVuSans-73" x="1221.785156"/>
     <use xlink:href="#DejaVuSans-2c" x="1273.884766"/>
     <use xlink:href="#DejaVuSans-20" x="1305.671875"/>
     <use xlink:href="#DejaVuSans-6e" x="1337.458984"/>
     <use xlink:href="#DejaVuSans-6f" x="1400.837891"/>
     <use xlink:href="#DejaVuSans-74" x="1462.019531"/>
     <use xlink:href="#DejaVuSans-20" x="1501.228516"/>
     <use xlink:href="#DejaVuSans-61" x="1533.015625"/>
     <use xlink:href="#DejaVuSans-20" x="1594.294922"/>
     <use xlink:href="#DejaVuSans-74" x="1626.082031"/>
     <use xlink:href="#DejaVuSans-68" x="1665.291016"/>
     <use xlink:href="#DejaVuSans-65" x="1728.669922"/>
     <use xlink:href="#DejaVuSans-6f" x="1790.193359"/>
     <use xlink:href="#DejaVuSans-72" x="1851.375"/>
     <use xlink:href="#DejaVuSans-65" x="1890.238281"/>
     <use xlink:href="#DejaVuSans-6d" x="1951.761719"/>
     <use xlink:href="#DejaVuSans-20" x="2049.173828"/>
     <use xlink:href="#DejaVuSans-6f" x="2080.960938"/>
     <use xlink:href="#DejaVuSans-66" x="2142.142578"/>
     <use xlink:href="#DejaVuSans-20" x="2177.347656"/>
     <use xlink:href="#DejaVuSans-6d" x="2209.134766"/>
     <use xlink:href="#DejaVuSans-69" x="2306.546875"/>
     <use xlink:href="#DejaVuSans-6e" x="2334.330078"/>
     <use xlink:href="#DejaVuSans-69" x="2397.708984"/>
     <use xlink:href="#DejaVuSans-6d" x="2425.492188"/>
     <use xlink:href="#DejaVuSans-61" x="2522.904297"/>
     <use xlink:href="#DejaVuSans-6c" x="2584.183594"/>
     <use xlink:href="#DejaVuSans-69" x="2611.966797"/>
     <use xlink:href="#DejaVuSans-74" x="2639.75"/>
     <use xlink:href="#DejaVuSans-79" x="2678.958984"/>
     <use xlink:href="#DejaVuSans-2e" x="2723.888672"/>
    </g>
   </g>
  </g>
  <g id="text_25">
   <!-- Minimal 1-NN separation witness -->
   <g transform="translate(161.941719 17.837812) scale(0.14 -0.14)">
    <defs>
     <path id="DejaVuSans-4d" d="M 628 4666
L 1569 4666
L 2759 1491
L 3956 4666
L 4897 4666
L 4897 0
L 4281 0
L 4281 4097
L 3078 897
L 2444 897
L 1241 4097
L 1241 0
L 628 0
L 628 4666
z
" transform="scale(0.015625)"/>
    </defs>
    <use xlink:href="#DejaVuSans-4d"/>
    <use xlink:href="#DejaVuSans-69" x="86.279297"/>
    <use xlink:href="#DejaVuSans-6e" x="114.0625"/>
    <use xlink:href="#DejaVuSans-69" x="177.441406"/>
    <use xlink:href="#DejaVuSans-6d" x="205.224609"/>
    <use xlink:href="#DejaVuSans-61" x="302.636719"/>
    <use xlink:href="#DejaVuSans-6c" x="363.916016"/>
    <use xlink:href="#DejaVuSans-20" x="391.699219"/>
    <use xlink:href="#DejaVuSans-31" x="423.486328"/>
    <use xlink:href="#DejaVuSans-2d" x="487.109375"/>
    <use xlink:href="#DejaVuSans-4e" x="523.193359"/>
    <use xlink:href="#DejaVuSans-4e" x="597.998047"/>
    <use xlink:href="#DejaVuSans-20" x="672.802734"/>
    <use xlink:href="#DejaVuSans-73" x="704.589844"/>
    <use xlink:href="#DejaVuSans-65" x="756.689453"/>
    <use xlink:href="#DejaVuSans-70" x="818.212891"/>
    <use xlink:href="#DejaVuSans-61" x="881.689453"/>
    <use xlink:href="#DejaVuSans-72" x="942.96875"/>
    <use xlink:href="#DejaVuSans-61" x="984.082031"/>
    <use xlink:href="#DejaVuSans-74" x="1045.361328"/>
    <use xlink:href="#DejaVuSans-69" x="1084.570312"/>
    <use xlink:href="#DejaVuSans-6f" x="1112.353516"/>
    <use xlink:href="#DejaVuSans-6e" x="1173.535156"/>
    <use xlink:href="#DejaVuSans-20" x="1236.914062"/>
    <use xlink:href="#DejaVuSans-77" x="1268.701172"/>
    <use xlink:href="#DejaVuSans-69" x="1350.488281"/>
    <use xlink:href="#DejaVuSans-74" x="1378.271484"/>
    <use xlink:href="#DejaVuSans-6e" x="1417.480469"/>
    <use xlink:href="#DejaVuSans-65" x="1480.859375"/>
    <use xlink:href="#DejaVuSans-73" x="1542.382812"/>
    <use xlink:href="#DejaVuSans-73" x="1594.482422"/>
   </g>
  </g>
 </g>
 <defs>
  <clipPath id="pf6ceffab32">
   <rect x="28.178182" y="50.4" width="211.68" height="151.2"/>
  </clipPath>
  <clipPath id="pbdc78e7b22">
   <rect x="311.563636" y="50.4" width="253.636364" height="151.2"/>
  </clipPath>
  <clipPath id="p2bd1dcb3d3">
   <rect x="7.2" y="231.84" width="253.636364" height="151.2"/>
  </clipPath>
 </defs>
</svg>
