<?xml version="1.0" encoding="utf-8" standalone="no"?>
<!DOCTYPE svg PUBLIC "-//W3C//DTD SVG 1.1//EN"
  "http://www.w3.org/Graphics/SVG/1.1/DTD/svg11.dtd">
<svg xmlns:xlink="http://www.w3.org/1999/xlink" width="795.6pt" height="252.432pt" viewBox="0 0 795.6 252.432" xmlns="http://www.w3.org/2000/svg" version="1.1">
 <metadata>
  <rdf:RDF xmlns:dc="http://purl.org/dc/elements/1.1/" xmlns:cc="http://creativecommons.org/ns#" xmlns:rdf="http://www.w3.org/1999/02/22-rdf-syntax-ns#">
   <cc:Work>
    <dc:type rdf:resource="http://purl.org/dc/dcmitype/StillImage"/>
    <dc:date>2026-05-14T15:39:07.586267</dc:date>
    <dc:format>image/svg+xml</dc:format>
    <dc:creator>
     <cc:Agent>
      <dc:title>Matplotlib v3.9.4, https://matplotlib.org/</dc:title>
     </cc:Agent>
    </dc:creator>
   </cc:Work>
  </rdf:RDF>
 </metadata>
 <defs>
  <style type="text/css">*{stroke-linejoin: round; stroke-linecap: butt}</style>
 </defs>
 <g id="figure_1">
  <g id="patch_1">
   <path d="M 0 252.432
L 795.6 252.432
L 795.6 0
L 0 0
z
" style="fill: #ffffff"/>
  </g>
  <g id="axes_1">
   <g id="patch_2">
    <path d="M 27.878824 209.41776
L 216.285882 209.41776
Q 225.476471 209.41776 225.476471 200.99088
L 225.476471 78.80112
Q 225.476471 70.37424 216.285882 70.37424
L 27.878824 70.37424
Q 18.688235 70.37424 18.688235 78.80112
L 18.688235 200.99088
Q 18.688235 209.41776 27.878824 209.41776
z
" clip-path="url(#pca9fc2ee34)" style="fill: #f7fafc; stroke: #2d3748; stroke-width: 1.6; stroke-linejoin: miter"/>
   </g>
   <g id="text_1">
    <!-- Delete-one -->
    <g transform="translate(85.01454 105.28629) scale(0.12 -0.12)">
     <defs>
      <path id="DejaVuSans-Bold-44" d="M 1791 3756
L 1791 909
L 2222 909
Q 2959 909 3348 1275
Q 3738 1641 3738 2338
Q 3738 3031 3350 3393
Q 2963 3756 2222 3756
L 1791 3756
z
M 588 4666
L 1856 4666
Q 2919 4666 3439 4514
Q 3959 4363 4331 4000
Q 4659 3684 4818 3271
Q 4978 2859 4978 2338
Q 4978 1809 4818 1395
Q 4659 981 4331 666
Q 3956 303 3431 151
Q 2906 0 1856 0
L 588 0
L 588 4666
z
" transform="scale(0.015625)"/>
      <path id="DejaVuSans-Bold-65" d="M 4031 1759
L 4031 1441
L 1416 1441
Q 1456 1047 1700 850
Q 1944 653 2381 653
Q 2734 653 3104 758
Q 3475 863 3866 1075
L 3866 213
Q 3469 63 3072 -14
Q 2675 -91 2278 -91
Q 1328 -91 801 392
Q 275 875 275 1747
Q 275 2603 792 3093
Q 1309 3584 2216 3584
Q 3041 3584 3536 3087
Q 4031 2591 4031 1759
z
M 2881 2131
Q 2881 2450 2695 2645
Q 2509 2841 2209 2841
Q 1884 2841 1681 2658
Q 1478 2475 1428 2131
L 2881 2131
z
" transform="scale(0.015625)"/>
      <path id="DejaVuSans-Bold-6c" d="M 538 4863
L 1656 4863
L 1656 0
L 538 0
L 538 4863
z
" transform="scale(0.015625)"/>
      <path id="DejaVuSans-Bold-74" d="M 1759 4494
L 1759 3500
L 2913 3500
L 2913 2700
L 1759 2700
L 1759 1216
Q 1759 972 1856 886
Q 1953 800 2241 800
L 2816 800
L 2816 0
L 1856 0
Q 1194 0 917 276
Q 641 553 641 1216
L 641 2700
L 84 2700
L 84 3500
L 641 3500
L 641 4494
L 1759 4494
z
" transform="scale(0.015625)"/>
      <path id="DejaVuSans-Bold-2d" d="M 347 2297
L 2309 2297
L 2309 1388
L 347 1388
L 347 2297
z
" transform="scale(0.015625)"/>
      <path id="DejaVuSans-Bold-6f" d="M 2203 2784
Q 1831 2784 1636 2517
Q 1441 2250 1441 1747
Q 1441 1244 1636 976
Q 1831 709 2203 709
Q 2569 709 2762 976
Q 2956 1244 2956 1747
Q 2956 2250 2762 2517
Q 2569 2784 2203 2784
z
M 2203 3584
Q 3106 3584 3614 3096
Q 4122 2609 4122 1747
Q 4122 884 3614 396
Q 3106 -91 2203 -91
Q 1297 -91 786 396
Q 275 884 275 1747
Q 275 2609 786 3096
Q 1297 3584 2203 3584
z
" transform="scale(0.015625)"/>
      <path id="DejaVuSans-Bold-6e" d="M 4056 2131
L 4056 0
L 2931 0
L 2931 347
L 2931 1631
Q 2931 2084 2911 2256
Q 2891 2428 2841 2509
Q 2775 2619 2662 2680
Q 2550 2741 2406 2741
Q 2056 2741 1856 2470
Q 1656 2200 1656 1722
L 1656 0
L 538 0
L 538 3500
L 1656 3500
L 1656 2988
Q 1909 3294 2193 3439
Q 2478 3584 2822 3584
Q 3428 3584 3742 3212
Q 4056 2841 4056 2131
z
" transform="scale(0.015625)"/>
     </defs>
     <use xlink:href="#DejaVuSans-Bold-44"/>
     <use xlink:href="#DejaVuSans-Bold-65" x="83.007812"/>
     <use xlink:href="#DejaVuSans-Bold-6c" x="150.830078"/>
     <use xlink:href="#DejaVuSans-Bold-65" x="185.107422"/>
     <use xlink:href="#DejaVuSans-Bold-74" x="252.929688"/>
     <use xlink:href="#DejaVuSans-Bold-65" x="300.732422"/>
     <use xlink:href="#DejaVuSans-Bold-2d" x="368.554688"/>
     <use xlink:href="#DejaVuSans-Bold-6f" x="410.058594"/>
     <use xlink:href="#DejaVuSans-Bold-6e" x="478.759766"/>
     <use xlink:href="#DejaVuSans-Bold-65" x="549.951172"/>
    </g>
   </g>
   <g id="text_2">
    <!-- delete one occurrence -->
    <g transform="translate(66.137822 151.792415) scale(0.1 -0.1)">
     <defs>
      <path id="DejaVuSans-64" d="M 2906 2969
L 2906 4863
L 3481 4863
L 3481 0
L 2906 0
L 2906 525
Q 2725 213 2448 61
Q 2172 -91 1784 -91
Q 1150 -91 751 415
Q 353 922 353 1747
Q 353 2572 751 3078
Q 1150 3584 1784 3584
Q 2172 3584 2448 3432
Q 2725 3281 2906 2969
z
M 947 1747
Q 947 1113 1208 752
Q 1469 391 1925 391
Q 2381 391 2643 752
Q 2906 1113 2906 1747
Q 2906 2381 2643 2742
Q 2381 3103 1925 3103
Q 1469 3103 1208 2742
Q 947 2381 947 1747
z
" transform="scale(0.015625)"/>
      <path id="DejaVuSans-65" d="M 3597 1894
L 3597 1613
L 953 1613
Q 991 1019 1311 708
Q 1631 397 2203 397
Q 2534 397 2845 478
Q 3156 559 3463 722
L 3463 178
Q 3153 47 2828 -22
Q 2503 -91 2169 -91
Q 1331 -91 842 396
Q 353 884 353 1716
Q 353 2575 817 3079
Q 1281 3584 2069 3584
Q 2775 3584 3186 3129
Q 3597 2675 3597 1894
z
M 3022 2063
Q 3016 2534 2758 2815
Q 2500 3097 2075 3097
Q 1594 3097 1305 2825
Q 1016 2553 972 2059
L 3022 2063
z
" transform="scale(0.015625)"/>
      <path id="DejaVuSans-6c" d="M 603 4863
L 1178 4863
L 1178 0
L 603 0
L 603 4863
z
" transform="scale(0.015625)"/>
      <path id="DejaVuSans-74" d="M 1172 4494
L 1172 3500
L 2356 3500
L 2356 3053
L 1172 3053
L 1172 1153
Q 1172 725 1289 603
Q 1406 481 1766 481
L 2356 481
L 2356 0
L 1766 0
Q 1100 0 847 248
Q 594 497 594 1153
L 594 3053
L 172 3053
L 172 3500
L 594 3500
L 594 4494
L 1172 4494
z
" transform="scale(0.015625)"/>
      <path id="DejaVuSans-20" transform="scale(0.015625)"/>
      <path id="DejaVuSans-6f" d="M 1959 3097
Q 1497 3097 1228 2736
Q 959 2375 959 1747
Q 959 1119 1226 758
Q 1494 397 1959 397
Q 2419 397 2687 759
Q 2956 1122 2956 1747
Q 2956 2369 2687 2733
Q 2419 3097 1959 3097
z
M 1959 3584
Q 2709 3584 3137 3096
Q 3566 2609 3566 1747
Q 3566 888 3137 398
Q 2709 -91 1959 -91
Q 1206 -91 779 398
Q 353 888 353 1747
Q 353 2609 779 3096
Q 1206 3584 1959 3584
z
" transform="scale(0.015625)"/>
      <path id="DejaVuSans-6e" d="M 3513 2113
L 3513 0
L 2938 0
L 2938 2094
Q 2938 2591 2744 2837
Q 2550 3084 2163 3084
Q 1697 3084 1428 2787
Q 1159 2491 1159 1978
L 1159 0
L 581 0
L 581 3500
L 1159 3500
L 1159 2956
Q 1366 3272 1645 3428
Q 1925 3584 2291 3584
Q 2894 3584 3203 3211
Q 3513 2838 3513 2113
z
" transform="scale(0.015625)"/>
      <path id="DejaVuSans-63" d="M 3122 3366
L 3122 2828
Q 2878 2963 2633 3030
Q 2388 3097 2138 3097
Q 1578 3097 1268 2742
Q 959 2388 959 1747
Q 959 1106 1268 751
Q 1578 397 2138 397
Q 2388 397 2633 464
Q 2878 531 3122 666
L 3122 134
Q 2881 22 2623 -34
Q 2366 -91 2075 -91
Q 1284 -91 818 406
Q 353 903 353 1747
Q 353 2603 823 3093
Q 1294 3584 2113 3584
Q 2378 3584 2631 3529
Q 2884 3475 3122 3366
z
" transform="scale(0.015625)"/>
      <path id="DejaVuSans-75" d="M 544 1381
L 544 3500
L 1119 3500
L 1119 1403
Q 1119 906 1312 657
Q 1506 409 1894 409
Q 2359 409 2629 706
Q 2900 1003 2900 1516
L 2900 3500
L 3475 3500
L 3475 0
L 2900 0
L 2900 538
Q 2691 219 2414 64
Q 2138 -91 1772 -91
Q 1169 -91 856 284
Q 544 659 544 1381
z
M 1991 3584
L 1991 3584
z
" transform="scale(0.015625)"/>
      <path id="DejaVuSans-72" d="M 2631 2963
Q 2534 3019 2420 3045
Q 2306 3072 2169 3072
Q 1681 3072 1420 2755
Q 1159 2438 1159 1844
L 1159 0
L 581 0
L 581 3500
L 1159 3500
L 1159 2956
Q 1341 3275 1631 3429
Q 1922 3584 2338 3584
Q 2397 3584 2469 3576
Q 2541 3569 2628 3553
L 2631 2963
z
" transform="scale(0.015625)"/>
     </defs>
     <use xlink:href="#DejaVuSans-64"/>
     <use xlink:href="#DejaVuSans-65" x="63.476562"/>
     <use xlink:href="#DejaVuSans-6c" x="125"/>
     <use xlink:href="#DejaVuSans-65" x="152.783203"/>
     <use xlink:href="#DejaVuSans-74" x="214.306641"/>
     <use xlink:href="#DejaVuSans-65" x="253.515625"/>
     <use xlink:href="#DejaVuSans-20" x="315.039062"/>
     <use xlink:href="#DejaVuSans-6f" x="346.826172"/>
     <use xlink:href="#DejaVuSans-6e" x="408.007812"/>
     <use xlink:href="#DejaVuSans-65" x="471.386719"/>
     <use xlink:href="#DejaVuSans-20" x="532.910156"/>
     <use xlink:href="#DejaVuSans-6f" x="564.697266"/>
     <use xlink:href="#DejaVuSans-63" x="625.878906"/>
     <use xlink:href="#DejaVuSans-63" x="680.859375"/>
     <use xlink:href="#DejaVuSans-75" x="735.839844"/>
     <use xlink:href="#DejaVuSans-72" x="799.21875"/>
     <use xlink:href="#DejaVuSans-72" x="838.582031"/>
     <use xlink:href="#DejaVuSans-65" x="877.445312"/>
     <use xlink:href="#DejaVuSans-6e" x="938.96875"/>
     <use xlink:href="#DejaVuSans-63" x="1002.347656"/>
     <use xlink:href="#DejaVuSans-65" x="1057.328125"/>
    </g>
    <!-- then evaluate arbitrary $(x,y)$ -->
    <g transform="translate(49.982353 162.992103) scale(0.1 -0.1)">
     <defs>
      <path id="DejaVuSans-68" d="M 3513 2113
L 3513 0
L 2938 0
L 2938 2094
Q 2938 2591 2744 2837
Q 2550 3084 2163 3084
Q 1697 3084 1428 2787
Q 1159 2491 1159 1978
L 1159 0
L 581 0
L 581 4863
L 1159 4863
L 1159 2956
Q 1366 3272 1645 3428
Q 1925 3584 2291 3584
Q 2894 3584 3203 3211
Q 3513 2838 3513 2113
z
" transform="scale(0.015625)"/>
      <path id="DejaVuSans-76" d="M 191 3500
L 800 3500
L 1894 563
L 2988 3500
L 3597 3500
L 2284 0
L 1503 0
L 191 3500
z
" transform="scale(0.015625)"/>
      <path id="DejaVuSans-61" d="M 2194 1759
Q 1497 1759 1228 1600
Q 959 1441 959 1056
Q 959 750 1161 570
Q 1363 391 1709 391
Q 2188 391 2477 730
Q 2766 1069 2766 1631
L 2766 1759
L 2194 1759
z
M 3341 1997
L 3341 0
L 2766 0
L 2766 531
Q 2569 213 2275 61
Q 1981 -91 1556 -91
Q 1019 -91 701 211
Q 384 513 384 1019
Q 384 1609 779 1909
Q 1175 2209 1959 2209
L 2766 2209
L 2766 2266
Q 2766 2663 2505 2880
Q 2244 3097 1772 3097
Q 1472 3097 1187 3025
Q 903 2953 641 2809
L 641 3341
Q 956 3463 1253 3523
Q 1550 3584 1831 3584
Q 2591 3584 2966 3190
Q 3341 2797 3341 1997
z
" transform="scale(0.015625)"/>
      <path id="DejaVuSans-62" d="M 3116 1747
Q 3116 2381 2855 2742
Q 2594 3103 2138 3103
Q 1681 3103 1420 2742
Q 1159 2381 1159 1747
Q 1159 1113 1420 752
Q 1681 391 2138 391
Q 2594 391 2855 752
Q 3116 1113 3116 1747
z
M 1159 2969
Q 1341 3281 1617 3432
Q 1894 3584 2278 3584
Q 2916 3584 3314 3078
Q 3713 2572 3713 1747
Q 3713 922 3314 415
Q 2916 -91 2278 -91
Q 1894 -91 1617 61
Q 1341 213 1159 525
L 1159 0
L 581 0
L 581 4863
L 1159 4863
L 1159 2969
z
" transform="scale(0.015625)"/>
      <path id="DejaVuSans-69" d="M 603 3500
L 1178 3500
L 1178 0
L 603 0
L 603 3500
z
M 603 4863
L 1178 4863
L 1178 4134
L 603 4134
L 603 4863
z
" transform="scale(0.015625)"/>
      <path id="DejaVuSans-79" d="M 2059 -325
Q 1816 -950 1584 -1140
Q 1353 -1331 966 -1331
L 506 -1331
L 506 -850
L 844 -850
Q 1081 -850 1212 -737
Q 1344 -625 1503 -206
L 1606 56
L 191 3500
L 800 3500
L 1894 763
L 2988 3500
L 3597 3500
L 2059 -325
z
" transform="scale(0.015625)"/>
      <path id="DejaVuSans-28" d="M 1984 4856
Q 1566 4138 1362 3434
Q 1159 2731 1159 2009
Q 1159 1288 1364 580
Q 1569 -128 1984 -844
L 1484 -844
Q 1016 -109 783 600
Q 550 1309 550 2009
Q 550 2706 781 3412
Q 1013 4119 1484 4856
L 1984 4856
z
" transform="scale(0.015625)"/>
      <path id="DejaVuSans-Oblique-78" d="M 3841 3500
L 2234 1784
L 3219 0
L 2559 0
L 1819 1388
L 531 0
L -166 0
L 1556 1844
L 641 3500
L 1300 3500
L 1972 2234
L 3144 3500
L 3841 3500
z
" transform="scale(0.015625)"/>
      <path id="DejaVuSans-2c" d="M 750 794
L 1409 794
L 1409 256
L 897 -744
L 494 -744
L 750 256
L 750 794
z
" transform="scale(0.015625)"/>
      <path id="DejaVuSans-Oblique-79" d="M 1588 -325
Q 1188 -997 936 -1164
Q 684 -1331 294 -1331
L -159 -1331
L -63 -850
L 269 -850
Q 509 -850 678 -719
Q 847 -588 1056 -206
L 1234 128
L 459 3500
L 1069 3500
L 1650 819
L 3256 3500
L 3859 3500
L 1588 -325
z
" transform="scale(0.015625)"/>
      <path id="DejaVuSans-29" d="M 513 4856
L 1013 4856
Q 1481 4119 1714 3412
Q 1947 2706 1947 2009
Q 1947 1309 1714 600
Q 1481 -109 1013 -844
L 513 -844
Q 928 -128 1133 580
Q 1338 1288 1338 2009
Q 1338 2731 1133 3434
Q 928 4138 513 4856
z
" transform="scale(0.015625)"/>
     </defs>
     <use xlink:href="#DejaVuSans-74" transform="translate(0 0.015625)"/>
     <use xlink:href="#DejaVuSans-68" transform="translate(39.208984 0.015625)"/>
     <use xlink:href="#DejaVuSans-65" transform="translate(102.587891 0.015625)"/>
     <use xlink:href="#DejaVuSans-6e" transform="translate(164.111328 0.015625)"/>
     <use xlink:href="#DejaVuSans-20" transform="translate(227.490234 0.015625)"/>
     <use xlink:href="#DejaVuSans-65" transform="translate(259.277344 0.015625)"/>
     <use xlink:href="#DejaVuSans-76" transform="translate(320.800781 0.015625)"/>
     <use xlink:href="#DejaVuSans-61" transform="translate(379.980469 0.015625)"/>
     <use xlink:href="#DejaVuSans-6c" transform="translate(441.259766 0.015625)"/>
     <use xlink:href="#DejaVuSans-75" transform="translate(469.042969 0.015625)"/>
     <use xlink:href="#DejaVuSans-61" transform="translate(532.421875 0.015625)"/>
     <use xlink:href="#DejaVuSans-74" transform="translate(593.701172 0.015625)"/>
     <use xlink:href="#DejaVuSans-65" transform="translate(632.910156 0.015625)"/>
     <use xlink:href="#DejaVuSans-20" transform="translate(694.433594 0.015625)"/>
     <use xlink:href="#DejaVuSans-61" transform="translate(726.220703 0.015625)"/>
     <use xlink:href="#DejaVuSans-72" transform="translate(787.5 0.015625)"/>
     <use xlink:href="#DejaVuSans-62" transform="translate(828.613281 0.015625)"/>
     <use xlink:href="#DejaVuSans-69" transform="translate(892.089844 0.015625)"/>
     <use xlink:href="#DejaVuSans-74" transform="translate(919.873047 0.015625)"/>
     <use xlink:href="#DejaVuSans-72" transform="translate(959.082031 0.015625)"/>
     <use xlink:href="#DejaVuSans-61" transform="translate(1000.195312 0.015625)"/>
     <use xlink:href="#DejaVuSans-72" transform="translate(1061.474609 0.015625)"/>
     <use xlink:href="#DejaVuSans-79" transform="translate(1102.587891 0.015625)"/>
     <use xlink:href="#DejaVuSans-20" transform="translate(1161.767578 0.015625)"/>
     <use xlink:href="#DejaVuSans-28" transform="translate(1193.554688 0.015625)"/>
     <use xlink:href="#DejaVuSans-Oblique-78" transform="translate(1232.568359 0.015625)"/>
     <use xlink:href="#DejaVuSans-2c" transform="translate(1291.748047 0.015625)"/>
     <use xlink:href="#DejaVuSans-Oblique-79" transform="translate(1343.017578 0.015625)"/>
     <use xlink:href="#DejaVuSans-29" transform="translate(1402.197266 0.015625)"/>
    </g>
   </g>
  </g>
  <g id="axes_2">
   <g id="patch_3">
    <path d="M 303.596471 209.41776
L 492.003529 209.41776
Q 501.194118 209.41776 501.194118 200.99088
L 501.194118 78.80112
Q 501.194118 70.37424 492.003529 70.37424
L 303.596471 70.37424
Q 294.405882 70.37424 294.405882 78.80112
L 294.405882 200.99088
Q 294.405882 209.41776 303.596471 209.41776
z
" clip-path="url(#pb5c7823ad1)" style="fill: #f7fafc; stroke: #2d3748; stroke-width: 1.6; stroke-linejoin: miter"/>
   </g>
   <g id="text_3">
    <!-- Replace-one -->
    <g transform="translate(356.13 105.28629) scale(0.12 -0.12)">
     <defs>
      <path id="DejaVuSans-Bold-52" d="M 2297 2597
Q 2675 2597 2839 2737
Q 3003 2878 3003 3200
Q 3003 3519 2839 3656
Q 2675 3794 2297 3794
L 1791 3794
L 1791 2597
L 2297 2597
z
M 1791 1766
L 1791 0
L 588 0
L 588 4666
L 2425 4666
Q 3347 4666 3776 4356
Q 4206 4047 4206 3378
Q 4206 2916 3982 2619
Q 3759 2322 3309 2181
Q 3556 2125 3751 1926
Q 3947 1728 4147 1325
L 4800 0
L 3519 0
L 2950 1159
Q 2778 1509 2601 1637
Q 2425 1766 2131 1766
L 1791 1766
z
" transform="scale(0.015625)"/>
      <path id="DejaVuSans-Bold-70" d="M 1656 506
L 1656 -1331
L 538 -1331
L 538 3500
L 1656 3500
L 1656 2988
Q 1888 3294 2169 3439
Q 2450 3584 2816 3584
Q 3463 3584 3878 3070
Q 4294 2556 4294 1747
Q 4294 938 3878 423
Q 3463 -91 2816 -91
Q 2450 -91 2169 54
Q 1888 200 1656 506
z
M 2400 2772
Q 2041 2772 1848 2508
Q 1656 2244 1656 1747
Q 1656 1250 1848 986
Q 2041 722 2400 722
Q 2759 722 2948 984
Q 3138 1247 3138 1747
Q 3138 2247 2948 2509
Q 2759 2772 2400 2772
z
" transform="scale(0.015625)"/>
      <path id="DejaVuSans-Bold-61" d="M 2106 1575
Q 1756 1575 1579 1456
Q 1403 1338 1403 1106
Q 1403 894 1545 773
Q 1688 653 1941 653
Q 2256 653 2472 879
Q 2688 1106 2688 1447
L 2688 1575
L 2106 1575
z
M 3816 1997
L 3816 0
L 2688 0
L 2688 519
Q 2463 200 2181 54
Q 1900 -91 1497 -91
Q 953 -91 614 226
Q 275 544 275 1050
Q 275 1666 698 1953
Q 1122 2241 2028 2241
L 2688 2241
L 2688 2328
Q 2688 2594 2478 2717
Q 2269 2841 1825 2841
Q 1466 2841 1156 2769
Q 847 2697 581 2553
L 581 3406
Q 941 3494 1303 3539
Q 1666 3584 2028 3584
Q 2975 3584 3395 3211
Q 3816 2838 3816 1997
z
" transform="scale(0.015625)"/>
      <path id="DejaVuSans-Bold-63" d="M 3366 3391
L 3366 2478
Q 3138 2634 2908 2709
Q 2678 2784 2431 2784
Q 1963 2784 1702 2511
Q 1441 2238 1441 1747
Q 1441 1256 1702 982
Q 1963 709 2431 709
Q 2694 709 2930 787
Q 3166 866 3366 1019
L 3366 103
Q 3103 6 2833 -42
Q 2563 -91 2291 -91
Q 1344 -91 809 395
Q 275 881 275 1747
Q 275 2613 809 3098
Q 1344 3584 2291 3584
Q 2566 3584 2833 3536
Q 3100 3488 3366 3391
z
" transform="scale(0.015625)"/>
     </defs>
     <use xlink:href="#DejaVuSans-Bold-52"/>
     <use xlink:href="#DejaVuSans-Bold-65" x="77.001953"/>
     <use xlink:href="#DejaVuSans-Bold-70" x="144.824219"/>
     <use xlink:href="#DejaVuSans-Bold-6c" x="216.40625"/>
     <use xlink:href="#DejaVuSans-Bold-61" x="250.683594"/>
     <use xlink:href="#DejaVuSans-Bold-63" x="318.164062"/>
     <use xlink:href="#DejaVuSans-Bold-65" x="377.441406"/>
     <use xlink:href="#DejaVuSans-Bold-2d" x="445.263672"/>
     <use xlink:href="#DejaVuSans-Bold-6f" x="486.767578"/>
     <use xlink:href="#DejaVuSans-Bold-6e" x="555.46875"/>
     <use xlink:href="#DejaVuSans-Bold-65" x="626.660156"/>
    </g>
   </g>
   <g id="text_4">
    <!-- replace one occurrence -->
    <g transform="translate(339.135938 151.792415) scale(0.1 -0.1)">
     <defs>
      <path id="DejaVuSans-70" d="M 1159 525
L 1159 -1331
L 581 -1331
L 581 3500
L 1159 3500
L 1159 2969
Q 1341 3281 1617 3432
Q 1894 3584 2278 3584
Q 2916 3584 3314 3078
Q 3713 2572 3713 1747
Q 3713 922 3314 415
Q 2916 -91 2278 -91
Q 1894 -91 1617 61
Q 1341 213 1159 525
z
M 3116 1747
Q 3116 2381 2855 2742
Q 2594 3103 2138 3103
Q 1681 3103 1420 2742
Q 1159 2381 1159 1747
Q 1159 1113 1420 752
Q 1681 391 2138 391
Q 2594 391 2855 752
Q 3116 1113 3116 1747
z
" transform="scale(0.015625)"/>
     </defs>
     <use xlink:href="#DejaVuSans-72"/>
     <use xlink:href="#DejaVuSans-65" x="38.863281"/>
     <use xlink:href="#DejaVuSans-70" x="100.386719"/>
     <use xlink:href="#DejaVuSans-6c" x="163.863281"/>
     <use xlink:href="#DejaVuSans-61" x="191.646484"/>
     <use xlink:href="#DejaVuSans-63" x="252.925781"/>
     <use xlink:href="#DejaVuSans-65" x="307.90625"/>
     <use xlink:href="#DejaVuSans-20" x="369.429688"/>
     <use xlink:href="#DejaVuSans-6f" x="401.216797"/>
     <use xlink:href="#DejaVuSans-6e" x="462.398438"/>
     <use xlink:href="#DejaVuSans-65" x="525.777344"/>
     <use xlink:href="#DejaVuSans-20" x="587.300781"/>
     <use xlink:href="#DejaVuSans-6f" x="619.087891"/>
     <use xlink:href="#DejaVuSans-63" x="680.269531"/>
     <use xlink:href="#DejaVuSans-63" x="735.25"/>
     <use xlink:href="#DejaVuSans-75" x="790.230469"/>
     <use xlink:href="#DejaVuSans-72" x="853.609375"/>
     <use xlink:href="#DejaVuSans-72" x="892.972656"/>
     <use xlink:href="#DejaVuSans-65" x="931.835938"/>
     <use xlink:href="#DejaVuSans-6e" x="993.359375"/>
     <use xlink:href="#DejaVuSans-63" x="1056.738281"/>
     <use xlink:href="#DejaVuSans-65" x="1111.71875"/>
    </g>
    <!-- then evaluate arbitrary $(x,y)$ -->
    <g transform="translate(325.7 162.992103) scale(0.1 -0.1)">
     <use xlink:href="#DejaVuSans-74" transform="translate(0 0.015625)"/>
     <use xlink:href="#DejaVuSans-68" transform="translate(39.208984 0.015625)"/>
     <use xlink:href="#DejaVuSans-65" transform="translate(102.587891 0.015625)"/>
     <use xlink:href="#DejaVuSans-6e" transform="translate(164.111328 0.015625)"/>
     <use xlink:href="#DejaVuSans-20" transform="translate(227.490234 0.015625)"/>
     <use xlink:href="#DejaVuSans-65" transform="translate(259.277344 0.015625)"/>
     <use xlink:href="#DejaVuSans-76" transform="translate(320.800781 0.015625)"/>
     <use xlink:href="#DejaVuSans-61" transform="translate(379.980469 0.015625)"/>
     <use xlink:href="#DejaVuSans-6c" transform="translate(441.259766 0.015625)"/>
     <use xlink:href="#DejaVuSans-75" transform="translate(469.042969 0.015625)"/>
     <use xlink:href="#DejaVuSans-61" transform="translate(532.421875 0.015625)"/>
     <use xlink:href="#DejaVuSans-74" transform="translate(593.701172 0.015625)"/>
     <use xlink:href="#DejaVuSans-65" transform="translate(632.910156 0.015625)"/>
     <use xlink:href="#DejaVuSans-20" transform="translate(694.433594 0.015625)"/>
     <use xlink:href="#DejaVuSans-61" transform="translate(726.220703 0.015625)"/>
     <use xlink:href="#DejaVuSans-72" transform="translate(787.5 0.015625)"/>
     <use xlink:href="#DejaVuSans-62" transform="translate(828.613281 0.015625)"/>
     <use xlink:href="#DejaVuSans-69" transform="translate(892.089844 0.015625)"/>
     <use xlink:href="#DejaVuSans-74" transform="translate(919.873047 0.015625)"/>
     <use xlink:href="#DejaVuSans-72" transform="translate(959.082031 0.015625)"/>
     <use xlink:href="#DejaVuSans-61" transform="translate(1000.195312 0.015625)"/>
     <use xlink:href="#DejaVuSans-72" transform="translate(1061.474609 0.015625)"/>
     <use xlink:href="#DejaVuSans-79" transform="translate(1102.587891 0.015625)"/>
     <use xlink:href="#DejaVuSans-20" transform="translate(1161.767578 0.015625)"/>
     <use xlink:href="#DejaVuSans-28" transform="translate(1193.554688 0.015625)"/>
     <use xlink:href="#DejaVuSans-Oblique-78" transform="translate(1232.568359 0.015625)"/>
     <use xlink:href="#DejaVuSans-2c" transform="translate(1291.748047 0.015625)"/>
     <use xlink:href="#DejaVuSans-Oblique-79" transform="translate(1343.017578 0.015625)"/>
     <use xlink:href="#DejaVuSans-29" transform="translate(1402.197266 0.015625)"/>
    </g>
   </g>
  </g>
  <g id="axes_3">
   <g id="patch_4">
    <path d="M 579.314118 209.41776
L 767.721176 209.41776
Q 776.911765 209.41776 776.911765 200.99088
L 776.911765 78.80112
Q 776.911765 70.37424 767.721176 70.37424
L 579.314118 70.37424
Q 570.123529 70.37424 570.123529 78.80112
L 570.123529 200.99088
Q 570.123529 209.41776 579.314118 209.41776
z
" clip-path="url(#pa3ea9c011a)" style="fill: #f7fafc; stroke: #2d3748; stroke-width: 1.6; stroke-linejoin: miter"/>
   </g>
   <g id="text_5">
    <!-- LOO -->
    <g transform="translate(659.710147 105.28629) scale(0.12 -0.12)">
     <defs>
      <path id="DejaVuSans-Bold-4c" d="M 588 4666
L 1791 4666
L 1791 909
L 3903 909
L 3903 0
L 588 0
L 588 4666
z
" transform="scale(0.015625)"/>
      <path id="DejaVuSans-Bold-4f" d="M 2719 3878
Q 2169 3878 1866 3472
Q 1563 3066 1563 2328
Q 1563 1594 1866 1187
Q 2169 781 2719 781
Q 3272 781 3575 1187
Q 3878 1594 3878 2328
Q 3878 3066 3575 3472
Q 3272 3878 2719 3878
z
M 2719 4750
Q 3844 4750 4481 4106
Q 5119 3463 5119 2328
Q 5119 1197 4481 553
Q 3844 -91 2719 -91
Q 1597 -91 958 553
Q 319 1197 319 2328
Q 319 3463 958 4106
Q 1597 4750 2719 4750
z
" transform="scale(0.015625)"/>
     </defs>
     <use xlink:href="#DejaVuSans-Bold-4c"/>
     <use xlink:href="#DejaVuSans-Bold-4f" x="60.095703"/>
     <use xlink:href="#DejaVuSans-Bold-4f" x="145.105469"/>
    </g>
   </g>
   <g id="text_6">
    <!-- delete one occurrence -->
    <g transform="translate(617.573116 151.803509) scale(0.1 -0.1)">
     <use xlink:href="#DejaVuSans-64"/>
     <use xlink:href="#DejaVuSans-65" x="63.476562"/>
     <use xlink:href="#DejaVuSans-6c" x="125"/>
     <use xlink:href="#DejaVuSans-65" x="152.783203"/>
     <use xlink:href="#DejaVuSans-74" x="214.306641"/>
     <use xlink:href="#DejaVuSans-65" x="253.515625"/>
     <use xlink:href="#DejaVuSans-20" x="315.039062"/>
     <use xlink:href="#DejaVuSans-6f" x="346.826172"/>
     <use xlink:href="#DejaVuSans-6e" x="408.007812"/>
     <use xlink:href="#DejaVuSans-65" x="471.386719"/>
     <use xlink:href="#DejaVuSans-20" x="532.910156"/>
     <use xlink:href="#DejaVuSans-6f" x="564.697266"/>
     <use xlink:href="#DejaVuSans-63" x="625.878906"/>
     <use xlink:href="#DejaVuSans-63" x="680.859375"/>
     <use xlink:href="#DejaVuSans-75" x="735.839844"/>
     <use xlink:href="#DejaVuSans-72" x="799.21875"/>
     <use xlink:href="#DejaVuSans-72" x="838.582031"/>
     <use xlink:href="#DejaVuSans-65" x="877.445312"/>
     <use xlink:href="#DejaVuSans-6e" x="938.96875"/>
     <use xlink:href="#DejaVuSans-63" x="1002.347656"/>
     <use xlink:href="#DejaVuSans-65" x="1057.328125"/>
    </g>
    <!-- then evaluate that deleted occurrence -->
    <g transform="translate(577.239522 163.001321) scale(0.1 -0.1)">
     <use xlink:href="#DejaVuSans-74"/>
     <use xlink:href="#DejaVuSans-68" x="39.208984"/>
     <use xlink:href="#DejaVuSans-65" x="102.587891"/>
     <use xlink:href="#DejaVuSans-6e" x="164.111328"/>
     <use xlink:href="#DejaVuSans-20" x="227.490234"/>
     <use xlink:href="#DejaVuSans-65" x="259.277344"/>
     <use xlink:href="#DejaVuSans-76" x="320.800781"/>
     <use xlink:href="#DejaVuSans-61" x="379.980469"/>
     <use xlink:href="#DejaVuSans-6c" x="441.259766"/>
     <use xlink:href="#DejaVuSans-75" x="469.042969"/>
     <use xlink:href="#DejaVuSans-61" x="532.421875"/>
     <use xlink:href="#DejaVuSans-74" x="593.701172"/>
     <use xlink:href="#DejaVuSans-65" x="632.910156"/>
     <use xlink:href="#DejaVuSans-20" x="694.433594"/>
     <use xlink:href="#DejaVuSans-74" x="726.220703"/>
     <use xlink:href="#DejaVuSans-68" x="765.429688"/>
     <use xlink:href="#DejaVuSans-61" x="828.808594"/>
     <use xlink:href="#DejaVuSans-74" x="890.087891"/>
     <use xlink:href="#DejaVuSans-20" x="929.296875"/>
     <use xlink:href="#DejaVuSans-64" x="961.083984"/>
     <use xlink:href="#DejaVuSans-65" x="1024.560547"/>
     <use xlink:href="#DejaVuSans-6c" x="1086.083984"/>
     <use xlink:href="#DejaVuSans-65" x="1113.867188"/>
     <use xlink:href="#DejaVuSans-74" x="1175.390625"/>
     <use xlink:href="#DejaVuSans-65" x="1214.599609"/>
     <use xlink:href="#DejaVuSans-64" x="1276.123047"/>
     <use xlink:href="#DejaVuSans-20" x="1339.599609"/>
     <use xlink:href="#DejaVuSans-6f" x="1371.386719"/>
     <use xlink:href="#DejaVuSans-63" x="1432.568359"/>
     <use xlink:href="#DejaVuSans-63" x="1487.548828"/>
     <use xlink:href="#DejaVuSans-75" x="1542.529297"/>
     <use xlink:href="#DejaVuSans-72" x="1605.908203"/>
     <use xlink:href="#DejaVuSans-72" x="1645.271484"/>
     <use xlink:href="#DejaVuSans-65" x="1684.134766"/>
     <use xlink:href="#DejaVuSans-6e" x="1745.658203"/>
     <use xlink:href="#DejaVuSans-63" x="1809.037109"/>
     <use xlink:href="#DejaVuSans-65" x="1864.017578"/>
    </g>
   </g>
  </g>
  <g id="text_7">
   <!-- Three perturbation notions differ by both operation and evaluation point -->
   <g transform="translate(131.081406 17.837813) scale(0.14 -0.14)">
    <defs>
     <path id="DejaVuSans-54" d="M -19 4666
L 3928 4666
L 3928 4134
L 2272 4134
L 2272 0
L 1638 0
L 1638 4134
L -19 4134
L -19 4666
z
" transform="scale(0.015625)"/>
     <path id="DejaVuSans-73" d="M 2834 3397
L 2834 2853
Q 2591 2978 2328 3040
Q 2066 3103 1784 3103
Q 1356 3103 1142 2972
Q 928 2841 928 2578
Q 928 2378 1081 2264
Q 1234 2150 1697 2047
L 1894 2003
Q 2506 1872 2764 1633
Q 3022 1394 3022 966
Q 3022 478 2636 193
Q 2250 -91 1575 -91
Q 1294 -91 989 -36
Q 684 19 347 128
L 347 722
Q 666 556 975 473
Q 1284 391 1588 391
Q 1994 391 2212 530
Q 2431 669 2431 922
Q 2431 1156 2273 1281
Q 2116 1406 1581 1522
L 1381 1569
Q 847 1681 609 1914
Q 372 2147 372 2553
Q 372 3047 722 3315
Q 1072 3584 1716 3584
Q 2034 3584 2315 3537
Q 2597 3491 2834 3397
z
" transform="scale(0.015625)"/>
     <path id="DejaVuSans-66" d="M 2375 4863
L 2375 4384
L 1825 4384
Q 1516 4384 1395 4259
Q 1275 4134 1275 3809
L 1275 3500
L 2222 3500
L 2222 3053
L 1275 3053
L 1275 0
L 697 0
L 697 3053
L 147 3053
L 147 3500
L 697 3500
L 697 3744
Q 697 4328 969 4595
Q 1241 4863 1831 4863
L 2375 4863
z
" transform="scale(0.015625)"/>
    </defs>
    <use xlink:href="#DejaVuSans-54"/>
    <use xlink:href="#DejaVuSans-68" x="61.083984"/>
    <use xlink:href="#DejaVuSans-72" x="124.462891"/>
    <use xlink:href="#DejaVuSans-65" x="163.326172"/>
    <use xlink:href="#DejaVuSans-65" x="224.849609"/>
    <use xlink:href="#DejaVuSans-20" x="286.373047"/>
    <use xlink:href="#DejaVuSans-70" x="318.160156"/>
    <use xlink:href="#DejaVuSans-65" x="381.636719"/>
    <use xlink:href="#DejaVuSans-72" x="443.160156"/>
    <use xlink:href="#DejaVuSans-74" x="484.273438"/>
    <use xlink:href="#DejaVuSans-75" x="523.482422"/>
    <use xlink:href="#DejaVuSans-72" x="586.861328"/>
    <use xlink:href="#DejaVuSans-62" x="627.974609"/>
    <use xlink:href="#DejaVuSans-61" x="691.451172"/>
    <use xlink:href="#DejaVuSans-74" x="752.730469"/>
    <use xlink:href="#DejaVuSans-69" x="791.939453"/>
    <use xlink:href="#DejaVuSans-6f" x="819.722656"/>
    <use xlink:href="#DejaVuSans-6e" x="880.904297"/>
    <use xlink:href="#DejaVuSans-20" x="944.283203"/>
    <use xlink:href="#DejaVuSans-6e" x="976.070312"/>
    <use xlink:href="#DejaVuSans-6f" x="1039.449219"/>
    <use xlink:href="#DejaVuSans-74" x="1100.630859"/>
    <use xlink:href="#DejaVuSans-69" x="1139.839844"/>
    <use xlink:href="#DejaVuSans-6f" x="1167.623047"/>
    <use xlink:href="#DejaVuSans-6e" x="1228.804688"/>
    <use xlink:href="#DejaVuSans-73" x="1292.183594"/>
    <use xlink:href="#DejaVuSans-20" x="1344.283203"/>
    <use xlink:href="#DejaVuSans-64" x="1376.070312"/>
    <use xlink:href="#DejaVuSans-69" x="1439.546875"/>
    <use xlink:href="#DejaVuSans-66" x="1467.330078"/>
    <use xlink:href="#DejaVuSans-66" x="1502.535156"/>
    <use xlink:href="#DejaVuSans-65" x="1537.740234"/>
    <use xlink:href="#DejaVuSans-72" x="1599.263672"/>
    <use xlink:href="#DejaVuSans-20" x="1640.376953"/>
    <use xlink:href="#DejaVuSans-62" x="1672.164062"/>
    <use xlink:href="#DejaVuSans-79" x="1735.640625"/>
    <use xlink:href="#DejaVuSans-20" x="1794.820312"/>
    <use xlink:href="#DejaVuSans-62" x="1826.607422"/>
    <use xlink:href="#DejaVuSans-6f" x="1890.083984"/>
    <use xlink:href="#DejaVuSans-74" x="1951.265625"/>
    <use xlink:href="#DejaVuSans-68" x="1990.474609"/>
    <use xlink:href="#DejaVuSans-20" x="2053.853516"/>
    <use xlink:href="#DejaVuSans-6f" x="2085.640625"/>
    <use xlink:href="#DejaVuSans-70" x="2146.822266"/>
    <use xlink:href="#DejaVuSans-65" x="2210.298828"/>
    <use xlink:href="#DejaVuSans-72" x="2271.822266"/>
    <use xlink:href="#DejaVuSans-61" x="2312.935547"/>
    <use xlink:href="#DejaVuSans-74" x="2374.214844"/>
    <use xlink:href="#DejaVuSans-69" x="2413.423828"/>
    <use xlink:href="#DejaVuSans-6f" x="2441.207031"/>
    <use xlink:href="#DejaVuSans-6e" x="2502.388672"/>
    <use xlink:href="#DejaVuSans-20" x="2565.767578"/>
    <use xlink:href="#DejaVuSans-61" x="2597.554688"/>
    <use xlink:href="#DejaVuSans-6e" x="2658.833984"/>
    <use xlink:href="#DejaVuSans-64" x="2722.212891"/>
    <use xlink:href="#DejaVuSans-20" x="2785.689453"/>
    <use xlink:href="#DejaVuSans-65" x="2817.476562"/>
    <use xlink:href="#DejaVuSans-76" x="2879"/>
    <use xlink:href="#DejaVuSans-61" x="2938.179688"/>
    <use xlink:href="#DejaVuSans-6c" x="2999.458984"/>
    <use xlink:href="#DejaVuSans-75" x="3027.242188"/>
    <use xlink:href="#DejaVuSans-61" x="3090.621094"/>
    <use xlink:href="#DejaVuSans-74" x="3151.900391"/>
    <use xlink:href="#DejaVuSans-69" x="3191.109375"/>
    <use xlink:href="#DejaVuSans-6f" x="3218.892578"/>
    <use xlink:href="#DejaVuSans-6e" x="3280.074219"/>
    <use xlink:href="#DejaVuSans-20" x="3343.453125"/>
    <use xlink:href="#DejaVuSans-70" x="3375.240234"/>
    <use xlink:href="#DejaVuSans-6f" x="3438.716797"/>
    <use xlink:href="#DejaVuSans-69" x="3499.898438"/>
    <use xlink:href="#DejaVuSans-6e" x="3527.681641"/>
    <use xlink:href="#DejaVuSans-74" x="3591.060547"/>
   </g>
  </g>
 </g>
 <defs>
  <clipPath id="pca9fc2ee34">
   <rect x="7.2" y="34.56" width="229.764706" height="210.672"/>
  </clipPath>
  <clipPath id="pb5c7823ad1">
   <rect x="282.917647" y="34.56" width="229.764706" height="210.672"/>
  </clipPath>
  <clipPath id="pa3ea9c011a">
   <rect x="558.635294" y="34.56" width="229.764706" height="210.672"/>
  </clipPath>
 </defs>
</svg>
