<?xml version="1.0" encoding="utf-8" standalone="no"?>
<!DOCTYPE svg PUBLIC "-//W3C//DTD SVG 1.1//EN"
  "http://www.w3.org/Graphics/SVG/1.1/DTD/svg11.dtd">
<svg xmlns:xlink="http://www.w3.org/1999/xlink" width="460.8pt" height="191.808pt" viewBox="0 0 460.8 191.808" xmlns="http://www.w3.org/2000/svg" version="1.1">
 <metadata>
  <rdf:RDF xmlns:dc="http://purl.org/dc/elements/1.1/" xmlns:cc="http://creativecommons.org/ns#" xmlns:rdf="http://www.w3.org/1999/02/22-rdf-syntax-ns#">
   <cc:Work>
    <dc:type rdf:resource="http://purl.org/dc/dcmitype/StillImage"/>
    <dc:date>2026-05-14T15:39:09.150087</dc:date>
    <dc:format>image/svg+xml</dc:format>
    <dc:creator>
     <cc:Agent>
      <dc:title>Matplotlib v3.9.4, https://matplotlib.org/</dc:title>
     </cc:Agent>
    </dc:creator>
   </cc:Work>
  </rdf:RDF>
 </metadata>
 <defs>
  <style type="text/css">*{stroke-linejoin: round; stroke-linecap: butt}</style>
 </defs>
 <g id="figure_1">
  <g id="patch_1">
   <path d="M 0 191.808
L 460.8 191.808
L 460.8 0
L 0 0
z
" style="fill: #ffffff"/>
  </g>
  <g id="axes_1">
   <g id="PathCollection_1">
    <path d="M 27.490909 100.376136
C 28.676933 100.376136 29.814541 99.904923 30.653187 99.066278
C 31.491833 98.227632 31.963045 97.090024 31.963045 95.904
C 31.963045 94.717976 31.491833 93.580368 30.653187 92.741722
C 29.814541 91.903077 28.676933 91.431864 27.490909 91.431864
C 26.304885 91.431864 25.167277 91.903077 24.328631 92.741722
C 23.489986 93.580368 23.018773 94.717976 23.018773 95.904
C 23.018773 97.090024 23.489986 98.227632 24.328631 99.066278
C 25.167277 99.904923 26.304885 100.376136 27.490909 100.376136
z
" clip-path="url(#pa0e9a54d3a)" style="fill: #4a5568; stroke: #1f2937"/>
    <path d="M 230.4 101.381226
C 231.852577 101.381226 233.245856 100.804111 234.272983 99.776983
C 235.300111 98.749856 235.877226 97.356577 235.877226 95.904
C 235.877226 94.451423 235.300111 93.058144 234.272983 92.031017
C 233.245856 91.003889 231.852577 90.426774 230.4 90.426774
C 228.947423 90.426774 227.554144 91.003889 226.527017 92.031017
C 225.499889 93.058144 224.922774 94.451423 224.922774 95.904
C 224.922774 97.356577 225.499889 98.749856 226.527017 99.776983
C 227.554144 100.804111 228.947423 101.381226 230.4 101.381226
z
" clip-path="url(#pa0e9a54d3a)" style="fill: #d8eefc; stroke: #1f2937"/>
    <path d="M 433.309091 101.381226
C 434.761668 101.381226 436.154947 100.804111 437.182074 99.776983
C 438.209201 98.749856 438.786316 97.356577 438.786316 95.904
C 438.786316 94.451423 438.209201 93.058144 437.182074 92.031017
C 436.154947 91.003889 434.761668 90.426774 433.309091 90.426774
C 431.856514 90.426774 430.463235 91.003889 429.436108 92.031017
C 428.40898 93.058144 427.831865 94.451423 427.831865 95.904
C 427.831865 97.356577 428.40898 98.749856 429.436108 99.776983
C 430.463235 100.804111 431.856514 101.381226 433.309091 101.381226
z
" clip-path="url(#pa0e9a54d3a)" style="fill: #ffd6d6; stroke: #1f2937"/>
   </g>
   <g id="text_1">
    <!-- query -->
    <g transform="translate(82.045625 74.61504) scale(0.1 -0.1)">
     <defs>
      <path id="DejaVuSans-71" d="M 947 1747
Q 947 1113 1208 752
Q 1469 391 1925 391
Q 2381 391 2643 752
Q 2906 1113 2906 1747
Q 2906 2381 2643 2742
Q 2381 3103 1925 3103
Q 1469 3103 1208 2742
Q 947 2381 947 1747
z
M 2906 525
Q 2725 213 2448 61
Q 2172 -91 1784 -91
Q 1150 -91 751 415
Q 353 922 353 1747
Q 353 2572 751 3078
Q 1150 3584 1784 3584
Q 2172 3584 2448 3432
Q 2725 3281 2906 2969
L 2906 3500
L 3481 3500
L 3481 -1331
L 2906 -1331
L 2906 525
z
" transform="scale(0.015625)"/>
      <path id="DejaVuSans-75" d="M 544 1381
L 544 3500
L 1119 3500
L 1119 1403
Q 1119 906 1312 657
Q 1506 409 1894 409
Q 2359 409 2629 706
Q 2900 1003 2900 1516
L 2900 3500
L 3475 3500
L 3475 0
L 2900 0
L 2900 538
Q 2691 219 2414 64
Q 2138 -91 1772 -91
Q 1169 -91 856 284
Q 544 659 544 1381
z
M 1991 3584
L 1991 3584
z
" transform="scale(0.015625)"/>
      <path id="DejaVuSans-65" d="M 3597 1894
L 3597 1613
L 953 1613
Q 991 1019 1311 708
Q 1631 397 2203 397
Q 2534 397 2845 478
Q 3156 559 3463 722
L 3463 178
Q 3153 47 2828 -22
Q 2503 -91 2169 -91
Q 1331 -91 842 396
Q 353 884 353 1716
Q 353 2575 817 3079
Q 1281 3584 2069 3584
Q 2775 3584 3186 3129
Q 3597 2675 3597 1894
z
M 3022 2063
Q 3016 2534 2758 2815
Q 2500 3097 2075 3097
Q 1594 3097 1305 2825
Q 1016 2553 972 2059
L 3022 2063
z
" transform="scale(0.015625)"/>
      <path id="DejaVuSans-72" d="M 2631 2963
Q 2534 3019 2420 3045
Q 2306 3072 2169 3072
Q 1681 3072 1420 2755
Q 1159 2438 1159 1844
L 1159 0
L 581 0
L 581 3500
L 1159 3500
L 1159 2956
Q 1341 3275 1631 3429
Q 1922 3584 2338 3584
Q 2397 3584 2469 3576
Q 2541 3569 2628 3553
L 2631 2963
z
" transform="scale(0.015625)"/>
      <path id="DejaVuSans-79" d="M 2059 -325
Q 1816 -950 1584 -1140
Q 1353 -1331 966 -1331
L 506 -1331
L 506 -850
L 844 -850
Q 1081 -850 1212 -737
Q 1344 -625 1503 -206
L 1606 56
L 191 3500
L 800 3500
L 1894 763
L 2988 3500
L 3597 3500
L 2059 -325
z
" transform="scale(0.015625)"/>
     </defs>
     <use xlink:href="#DejaVuSans-71"/>
     <use xlink:href="#DejaVuSans-75" x="63.476562"/>
     <use xlink:href="#DejaVuSans-65" x="126.855469"/>
     <use xlink:href="#DejaVuSans-72" x="188.378906"/>
     <use xlink:href="#DejaVuSans-79" x="229.492188"/>
    </g>
   </g>
   <g id="text_2">
    <!-- occurrence #i -->
    <g transform="translate(195.523437 74.61504) scale(0.1 -0.1)">
     <defs>
      <path id="DejaVuSans-6f" d="M 1959 3097
Q 1497 3097 1228 2736
Q 959 2375 959 1747
Q 959 1119 1226 758
Q 1494 397 1959 397
Q 2419 397 2687 759
Q 2956 1122 2956 1747
Q 2956 2369 2687 2733
Q 2419 3097 1959 3097
z
M 1959 3584
Q 2709 3584 3137 3096
Q 3566 2609 3566 1747
Q 3566 888 3137 398
Q 2709 -91 1959 -91
Q 1206 -91 779 398
Q 353 888 353 1747
Q 353 2609 779 3096
Q 1206 3584 1959 3584
z
" transform="scale(0.015625)"/>
      <path id="DejaVuSans-63" d="M 3122 3366
L 3122 2828
Q 2878 2963 2633 3030
Q 2388 3097 2138 3097
Q 1578 3097 1268 2742
Q 959 2388 959 1747
Q 959 1106 1268 751
Q 1578 397 2138 397
Q 2388 397 2633 464
Q 2878 531 3122 666
L 3122 134
Q 2881 22 2623 -34
Q 2366 -91 2075 -91
Q 1284 -91 818 406
Q 353 903 353 1747
Q 353 2603 823 3093
Q 1294 3584 2113 3584
Q 2378 3584 2631 3529
Q 2884 3475 3122 3366
z
" transform="scale(0.015625)"/>
      <path id="DejaVuSans-6e" d="M 3513 2113
L 3513 0
L 2938 0
L 2938 2094
Q 2938 2591 2744 2837
Q 2550 3084 2163 3084
Q 1697 3084 1428 2787
Q 1159 2491 1159 1978
L 1159 0
L 581 0
L 581 3500
L 1159 3500
L 1159 2956
Q 1366 3272 1645 3428
Q 1925 3584 2291 3584
Q 2894 3584 3203 3211
Q 3513 2838 3513 2113
z
" transform="scale(0.015625)"/>
      <path id="DejaVuSans-20" transform="scale(0.015625)"/>
      <path id="DejaVuSans-23" d="M 3272 2816
L 2363 2816
L 2100 1772
L 3016 1772
L 3272 2816
z
M 2803 4594
L 2478 3297
L 3391 3297
L 3719 4594
L 4219 4594
L 3897 3297
L 4872 3297
L 4872 2816
L 3775 2816
L 3519 1772
L 4513 1772
L 4513 1294
L 3397 1294
L 3072 0
L 2572 0
L 2894 1294
L 1978 1294
L 1656 0
L 1153 0
L 1478 1294
L 494 1294
L 494 1772
L 1594 1772
L 1856 2816
L 850 2816
L 850 3297
L 1978 3297
L 2297 4594
L 2803 4594
z
" transform="scale(0.015625)"/>
      <path id="DejaVuSans-69" d="M 603 3500
L 1178 3500
L 1178 0
L 603 0
L 603 3500
z
M 603 4863
L 1178 4863
L 1178 4134
L 603 4134
L 603 4863
z
" transform="scale(0.015625)"/>
     </defs>
     <use xlink:href="#DejaVuSans-6f"/>
     <use xlink:href="#DejaVuSans-63" x="61.181641"/>
     <use xlink:href="#DejaVuSans-63" x="116.162109"/>
     <use xlink:href="#DejaVuSans-75" x="171.142578"/>
     <use xlink:href="#DejaVuSans-72" x="234.521484"/>
     <use xlink:href="#DejaVuSans-72" x="273.884766"/>
     <use xlink:href="#DejaVuSans-65" x="312.748047"/>
     <use xlink:href="#DejaVuSans-6e" x="374.271484"/>
     <use xlink:href="#DejaVuSans-63" x="437.650391"/>
     <use xlink:href="#DejaVuSans-65" x="492.630859"/>
     <use xlink:href="#DejaVuSans-20" x="554.154297"/>
     <use xlink:href="#DejaVuSans-23" x="585.941406"/>
     <use xlink:href="#DejaVuSans-69" x="669.730469"/>
    </g>
   </g>
   <g id="text_3">
    <!-- occurrence #j -->
    <g transform="translate(329.443438 74.61504) scale(0.1 -0.1)">
     <defs>
      <path id="DejaVuSans-6a" d="M 603 3500
L 1178 3500
L 1178 -63
Q 1178 -731 923 -1031
Q 669 -1331 103 -1331
L -116 -1331
L -116 -844
L 38 -844
Q 366 -844 484 -692
Q 603 -541 603 -63
L 603 3500
z
M 603 4863
L 1178 4863
L 1178 4134
L 603 4134
L 603 4863
z
" transform="scale(0.015625)"/>
     </defs>
     <use xlink:href="#DejaVuSans-6f"/>
     <use xlink:href="#DejaVuSans-63" x="61.181641"/>
     <use xlink:href="#DejaVuSans-63" x="116.162109"/>
     <use xlink:href="#DejaVuSans-75" x="171.142578"/>
     <use xlink:href="#DejaVuSans-72" x="234.521484"/>
     <use xlink:href="#DejaVuSans-72" x="273.884766"/>
     <use xlink:href="#DejaVuSans-65" x="312.748047"/>
     <use xlink:href="#DejaVuSans-6e" x="374.271484"/>
     <use xlink:href="#DejaVuSans-63" x="437.650391"/>
     <use xlink:href="#DejaVuSans-65" x="492.630859"/>
     <use xlink:href="#DejaVuSans-20" x="554.154297"/>
     <use xlink:href="#DejaVuSans-23" x="585.941406"/>
     <use xlink:href="#DejaVuSans-6a" x="669.730469"/>
    </g>
   </g>
   <g id="text_4">
    <!-- distance ties break by smaller sample index -->
    <g transform="translate(120.053125 134.93376) scale(0.1 -0.1)">
     <defs>
      <path id="DejaVuSans-64" d="M 2906 2969
L 2906 4863
L 3481 4863
L 3481 0
L 2906 0
L 2906 525
Q 2725 213 2448 61
Q 2172 -91 1784 -91
Q 1150 -91 751 415
Q 353 922 353 1747
Q 353 2572 751 3078
Q 1150 3584 1784 3584
Q 2172 3584 2448 3432
Q 2725 3281 2906 2969
z
M 947 1747
Q 947 1113 1208 752
Q 1469 391 1925 391
Q 2381 391 2643 752
Q 2906 1113 2906 1747
Q 2906 2381 2643 2742
Q 2381 3103 1925 3103
Q 1469 3103 1208 2742
Q 947 2381 947 1747
z
" transform="scale(0.015625)"/>
      <path id="DejaVuSans-73" d="M 2834 3397
L 2834 2853
Q 2591 2978 2328 3040
Q 2066 3103 1784 3103
Q 1356 3103 1142 2972
Q 928 2841 928 2578
Q 928 2378 1081 2264
Q 1234 2150 1697 2047
L 1894 2003
Q 2506 1872 2764 1633
Q 3022 1394 3022 966
Q 3022 478 2636 193
Q 2250 -91 1575 -91
Q 1294 -91 989 -36
Q 684 19 347 128
L 347 722
Q 666 556 975 473
Q 1284 391 1588 391
Q 1994 391 2212 530
Q 2431 669 2431 922
Q 2431 1156 2273 1281
Q 2116 1406 1581 1522
L 1381 1569
Q 847 1681 609 1914
Q 372 2147 372 2553
Q 372 3047 722 3315
Q 1072 3584 1716 3584
Q 2034 3584 2315 3537
Q 2597 3491 2834 3397
z
" transform="scale(0.015625)"/>
      <path id="DejaVuSans-74" d="M 1172 4494
L 1172 3500
L 2356 3500
L 2356 3053
L 1172 3053
L 1172 1153
Q 1172 725 1289 603
Q 1406 481 1766 481
L 2356 481
L 2356 0
L 1766 0
Q 1100 0 847 248
Q 594 497 594 1153
L 594 3053
L 172 3053
L 172 3500
L 594 3500
L 594 4494
L 1172 4494
z
" transform="scale(0.015625)"/>
      <path id="DejaVuSans-61" d="M 2194 1759
Q 1497 1759 1228 1600
Q 959 1441 959 1056
Q 959 750 1161 570
Q 1363 391 1709 391
Q 2188 391 2477 730
Q 2766 1069 2766 1631
L 2766 1759
L 2194 1759
z
M 3341 1997
L 3341 0
L 2766 0
L 2766 531
Q 2569 213 2275 61
Q 1981 -91 1556 -91
Q 1019 -91 701 211
Q 384 513 384 1019
Q 384 1609 779 1909
Q 1175 2209 1959 2209
L 2766 2209
L 2766 2266
Q 2766 2663 2505 2880
Q 2244 3097 1772 3097
Q 1472 3097 1187 3025
Q 903 2953 641 2809
L 641 3341
Q 956 3463 1253 3523
Q 1550 3584 1831 3584
Q 2591 3584 2966 3190
Q 3341 2797 3341 1997
z
" transform="scale(0.015625)"/>
      <path id="DejaVuSans-62" d="M 3116 1747
Q 3116 2381 2855 2742
Q 2594 3103 2138 3103
Q 1681 3103 1420 2742
Q 1159 2381 1159 1747
Q 1159 1113 1420 752
Q 1681 391 2138 391
Q 2594 391 2855 752
Q 3116 1113 3116 1747
z
M 1159 2969
Q 1341 3281 1617 3432
Q 1894 3584 2278 3584
Q 2916 3584 3314 3078
Q 3713 2572 3713 1747
Q 3713 922 3314 415
Q 2916 -91 2278 -91
Q 1894 -91 1617 61
Q 1341 213 1159 525
L 1159 0
L 581 0
L 581 4863
L 1159 4863
L 1159 2969
z
" transform="scale(0.015625)"/>
      <path id="DejaVuSans-6b" d="M 581 4863
L 1159 4863
L 1159 1991
L 2875 3500
L 3609 3500
L 1753 1863
L 3688 0
L 2938 0
L 1159 1709
L 1159 0
L 581 0
L 581 4863
z
" transform="scale(0.015625)"/>
      <path id="DejaVuSans-6d" d="M 3328 2828
Q 3544 3216 3844 3400
Q 4144 3584 4550 3584
Q 5097 3584 5394 3201
Q 5691 2819 5691 2113
L 5691 0
L 5113 0
L 5113 2094
Q 5113 2597 4934 2840
Q 4756 3084 4391 3084
Q 3944 3084 3684 2787
Q 3425 2491 3425 1978
L 3425 0
L 2847 0
L 2847 2094
Q 2847 2600 2669 2842
Q 2491 3084 2119 3084
Q 1678 3084 1418 2786
Q 1159 2488 1159 1978
L 1159 0
L 581 0
L 581 3500
L 1159 3500
L 1159 2956
Q 1356 3278 1631 3431
Q 1906 3584 2284 3584
Q 2666 3584 2933 3390
Q 3200 3197 3328 2828
z
" transform="scale(0.015625)"/>
      <path id="DejaVuSans-6c" d="M 603 4863
L 1178 4863
L 1178 0
L 603 0
L 603 4863
z
" transform="scale(0.015625)"/>
      <path id="DejaVuSans-70" d="M 1159 525
L 1159 -1331
L 581 -1331
L 581 3500
L 1159 3500
L 1159 2969
Q 1341 3281 1617 3432
Q 1894 3584 2278 3584
Q 2916 3584 3314 3078
Q 3713 2572 3713 1747
Q 3713 922 3314 415
Q 2916 -91 2278 -91
Q 1894 -91 1617 61
Q 1341 213 1159 525
z
M 3116 1747
Q 3116 2381 2855 2742
Q 2594 3103 2138 3103
Q 1681 3103 1420 2742
Q 1159 2381 1159 1747
Q 1159 1113 1420 752
Q 1681 391 2138 391
Q 2594 391 2855 752
Q 3116 1113 3116 1747
z
" transform="scale(0.015625)"/>
      <path id="DejaVuSans-78" d="M 3513 3500
L 2247 1797
L 3578 0
L 2900 0
L 1881 1375
L 863 0
L 184 0
L 1544 1831
L 300 3500
L 978 3500
L 1906 2253
L 2834 3500
L 3513 3500
z
" transform="scale(0.015625)"/>
     </defs>
     <use xlink:href="#DejaVuSans-64"/>
     <use xlink:href="#DejaVuSans-69" x="63.476562"/>
     <use xlink:href="#DejaVuSans-73" x="91.259766"/>
     <use xlink:href="#DejaVuSans-74" x="143.359375"/>
     <use xlink:href="#DejaVuSans-61" x="182.568359"/>
     <use xlink:href="#DejaVuSans-6e" x="243.847656"/>
     <use xlink:href="#DejaVuSans-63" x="307.226562"/>
     <use xlink:href="#DejaVuSans-65" x="362.207031"/>
     <use xlink:href="#DejaVuSans-20" x="423.730469"/>
     <use xlink:href="#DejaVuSans-74" x="455.517578"/>
     <use xlink:href="#DejaVuSans-69" x="494.726562"/>
     <use xlink:href="#DejaVuSans-65" x="522.509766"/>
     <use xlink:href="#DejaVuSans-73" x="584.033203"/>
     <use xlink:href="#DejaVuSans-20" x="636.132812"/>
     <use xlink:href="#DejaVuSans-62" x="667.919922"/>
     <use xlink:href="#DejaVuSans-72" x="731.396484"/>
     <use xlink:href="#DejaVuSans-65" x="770.259766"/>
     <use xlink:href="#DejaVuSans-61" x="831.783203"/>
     <use xlink:href="#DejaVuSans-6b" x="893.0625"/>
     <use xlink:href="#DejaVuSans-20" x="950.972656"/>
     <use xlink:href="#DejaVuSans-62" x="982.759766"/>
     <use xlink:href="#DejaVuSans-79" x="1046.236328"/>
     <use xlink:href="#DejaVuSans-20" x="1105.416016"/>
     <use xlink:href="#DejaVuSans-73" x="1137.203125"/>
     <use xlink:href="#DejaVuSans-6d" x="1189.302734"/>
     <use xlink:href="#DejaVuSans-61" x="1286.714844"/>
     <use xlink:href="#DejaVuSans-6c" x="1347.994141"/>
     <use xlink:href="#DejaVuSans-6c" x="1375.777344"/>
     <use xlink:href="#DejaVuSans-65" x="1403.560547"/>
     <use xlink:href="#DejaVuSans-72" x="1465.083984"/>
     <use xlink:href="#DejaVuSans-20" x="1506.197266"/>
     <use xlink:href="#DejaVuSans-73" x="1537.984375"/>
     <use xlink:href="#DejaVuSans-61" x="1590.083984"/>
     <use xlink:href="#DejaVuSans-6d" x="1651.363281"/>
     <use xlink:href="#DejaVuSans-70" x="1748.775391"/>
     <use xlink:href="#DejaVuSans-6c" x="1812.251953"/>
     <use xlink:href="#DejaVuSans-65" x="1840.035156"/>
     <use xlink:href="#DejaVuSans-20" x="1901.558594"/>
     <use xlink:href="#DejaVuSans-69" x="1933.345703"/>
     <use xlink:href="#DejaVuSans-6e" x="1961.128906"/>
     <use xlink:href="#DejaVuSans-64" x="2024.507812"/>
     <use xlink:href="#DejaVuSans-65" x="2087.984375"/>
     <use xlink:href="#DejaVuSans-78" x="2147.757812"/>
    </g>
   </g>
   <g id="text_5">
    <g id="patch_2">
     <path d="M 141.944531 167.398728
L 318.855469 167.398728
Q 320.855469 167.398728 320.855469 165.398728
L 320.855469 155.720603
Q 320.855469 153.720603 318.855469 153.720603
L 141.944531 153.720603
Q 139.944531 153.720603 139.944531 155.720603
L 139.944531 165.398728
Q 139.944531 167.398728 141.944531 167.398728
z
" style="fill: #f7fafc; stroke: #2d3748; stroke-linejoin: miter"/>
    </g>
    <!-- label vote ties break toward label 0 -->
    <g transform="translate(141.944531 163.31904) scale(0.1 -0.1)">
     <defs>
      <path id="DejaVuSans-76" d="M 191 3500
L 800 3500
L 1894 563
L 2988 3500
L 3597 3500
L 2284 0
L 1503 0
L 191 3500
z
" transform="scale(0.015625)"/>
      <path id="DejaVuSans-77" d="M 269 3500
L 844 3500
L 1563 769
L 2278 3500
L 2956 3500
L 3675 769
L 4391 3500
L 4966 3500
L 4050 0
L 3372 0
L 2619 2869
L 1863 0
L 1184 0
L 269 3500
z
" transform="scale(0.015625)"/>
      <path id="DejaVuSans-30" d="M 2034 4250
Q 1547 4250 1301 3770
Q 1056 3291 1056 2328
Q 1056 1369 1301 889
Q 1547 409 2034 409
Q 2525 409 2770 889
Q 3016 1369 3016 2328
Q 3016 3291 2770 3770
Q 2525 4250 2034 4250
z
M 2034 4750
Q 2819 4750 3233 4129
Q 3647 3509 3647 2328
Q 3647 1150 3233 529
Q 2819 -91 2034 -91
Q 1250 -91 836 529
Q 422 1150 422 2328
Q 422 3509 836 4129
Q 1250 4750 2034 4750
z
" transform="scale(0.015625)"/>
     </defs>
     <use xlink:href="#DejaVuSans-6c"/>
     <use xlink:href="#DejaVuSans-61" x="27.783203"/>
     <use xlink:href="#DejaVuSans-62" x="89.0625"/>
     <use xlink:href="#DejaVuSans-65" x="152.539062"/>
     <use xlink:href="#DejaVuSans-6c" x="214.0625"/>
     <use xlink:href="#DejaVuSans-20" x="241.845703"/>
     <use xlink:href="#DejaVuSans-76" x="273.632812"/>
     <use xlink:href="#DejaVuSans-6f" x="332.8125"/>
     <use xlink:href="#DejaVuSans-74" x="393.994141"/>
     <use xlink:href="#DejaVuSans-65" x="433.203125"/>
     <use xlink:href="#DejaVuSans-20" x="494.726562"/>
     <use xlink:href="#DejaVuSans-74" x="526.513672"/>
     <use xlink:href="#DejaVuSans-69" x="565.722656"/>
     <use xlink:href="#DejaVuSans-65" x="593.505859"/>
     <use xlink:href="#DejaVuSans-73" x="655.029297"/>
     <use xlink:href="#DejaVuSans-20" x="707.128906"/>
     <use xlink:href="#DejaVuSans-62" x="738.916016"/>
     <use xlink:href="#DejaVuSans-72" x="802.392578"/>
     <use xlink:href="#DejaVuSans-65" x="841.255859"/>
     <use xlink:href="#DejaVuSans-61" x="902.779297"/>
     <use xlink:href="#DejaVuSans-6b" x="964.058594"/>
     <use xlink:href="#DejaVuSans-20" x="1021.96875"/>
     <use xlink:href="#DejaVuSans-74" x="1053.755859"/>
     <use xlink:href="#DejaVuSans-6f" x="1092.964844"/>
     <use xlink:href="#DejaVuSans-77" x="1154.146484"/>
     <use xlink:href="#DejaVuSans-61" x="1235.933594"/>
     <use xlink:href="#DejaVuSans-72" x="1297.212891"/>
     <use xlink:href="#DejaVuSans-64" x="1336.576172"/>
     <use xlink:href="#DejaVuSans-20" x="1400.052734"/>
     <use xlink:href="#DejaVuSans-6c" x="1431.839844"/>
     <use xlink:href="#DejaVuSans-61" x="1459.623047"/>
     <use xlink:href="#DejaVuSans-62" x="1520.902344"/>
     <use xlink:href="#DejaVuSans-65" x="1584.378906"/>
     <use xlink:href="#DejaVuSans-6c" x="1645.902344"/>
     <use xlink:href="#DejaVuSans-20" x="1673.685547"/>
     <use xlink:href="#DejaVuSans-30" x="1705.472656"/>
    </g>
   </g>
  </g>
 </g>
 <defs>
  <clipPath id="pa0e9a54d3a">
   <rect x="7.2" y="7.2" width="446.4" height="177.408"/>
  </clipPath>
 </defs>
</svg>
