<?xml version="1.0" encoding="utf-8" standalone="no"?>
<!DOCTYPE svg PUBLIC "-//W3C//DTD SVG 1.1//EN"
  "http://www.w3.org/Graphics/SVG/1.1/DTD/svg11.dtd">
<svg xmlns:xlink="http://www.w3.org/1999/xlink" width="516.6pt" height="226.51142pt" viewBox="0 0 516.6 226.51142" xmlns="http://www.w3.org/2000/svg" version="1.1">
 <metadata>
  <rdf:RDF xmlns:dc="http://purl.org/dc/elements/1.1/" xmlns:cc="http://creativecommons.org/ns#" xmlns:rdf="http://www.w3.org/1999/02/22-rdf-syntax-ns#">
   <cc:Work>
    <dc:type rdf:resource="http://purl.org/dc/dcmitype/StillImage"/>
    <dc:date>2026-05-16T16:35:35.331118</dc:date>
    <dc:format>image/svg+xml</dc:format>
    <dc:creator>
     <cc:Agent>
      <dc:title>Matplotlib v3.10.0, https://matplotlib.org/</dc:title>
     </cc:Agent>
    </dc:creator>
   </cc:Work>
  </rdf:RDF>
 </metadata>
 <defs>
  <style type="text/css">*{stroke-linejoin: round; stroke-linecap: butt}</style>
 </defs>
 <g id="figure_1">
  <g id="patch_1">
   <path d="M 0 226.51142 
L 516.6 226.51142 
L 516.6 0 
L 0 0 
z
" style="fill: #ffffff"/>
  </g>
  <g id="axes_1">
   <g id="patch_2">
    <path d="M 7.2 219.31142 
L 509.4 219.31142 
L 509.4 51.22517 
L 7.2 51.22517 
z
" style="fill: #ffffff"/>
   </g>
   <g id="patch_3">
    <path d="M 37.552747 101.651045 
L 157.96034 101.651045 
Q 165.485814 101.651045 165.485814 97.066875 
L 165.485814 63.449625 
Q 165.485814 58.865455 157.96034 58.865455 
L 37.552747 58.865455 
Q 30.027273 58.865455 30.027273 63.449625 
L 30.027273 97.066875 
Q 30.027273 101.651045 37.552747 101.651045 
z
" clip-path="url(#pa817129046)" style="fill: #d8d8d8; stroke: #4d4d4d; stroke-width: 0.7; stroke-linejoin: miter"/>
   </g>
   <g id="patch_4">
    <path d="M 37.552747 211.671136 
L 157.96034 211.671136 
Q 165.485814 211.671136 165.485814 207.086966 
L 165.485814 173.469716 
Q 165.485814 168.885545 157.96034 168.885545 
L 37.552747 168.885545 
Q 30.027273 168.885545 30.027273 173.469716 
L 30.027273 207.086966 
Q 30.027273 211.671136 37.552747 211.671136 
z
" clip-path="url(#pa817129046)" style="fill: #d8d8d8; stroke: #4d4d4d; stroke-width: 0.7; stroke-linejoin: miter"/>
   </g>
   <g id="patch_5">
    <path d="M 198.096204 101.651045 
L 318.503796 101.651045 
Q 326.029271 101.651045 326.029271 97.066875 
L 326.029271 63.449625 
Q 326.029271 58.865455 318.503796 58.865455 
L 198.096204 58.865455 
Q 190.570729 58.865455 190.570729 63.449625 
L 190.570729 97.066875 
Q 190.570729 101.651045 198.096204 101.651045 
z
" clip-path="url(#pa817129046)" style="fill: #d8d8d8; stroke: #4d4d4d; stroke-width: 0.7; stroke-linejoin: miter"/>
   </g>
   <g id="patch_6">
    <path d="M 358.63966 101.651045 
L 479.047253 101.651045 
Q 486.572727 101.651045 486.572727 97.066875 
L 486.572727 63.449625 
Q 486.572727 58.865455 479.047253 58.865455 
L 358.63966 58.865455 
Q 351.114186 58.865455 351.114186 63.449625 
L 351.114186 97.066875 
Q 351.114186 101.651045 358.63966 101.651045 
z
" clip-path="url(#pa817129046)" style="fill: #d8d8d8; stroke: #4d4d4d; stroke-width: 0.7; stroke-linejoin: miter"/>
   </g>
   <g id="patch_7">
    <path d="M 358.63966 211.671136 
L 479.047253 211.671136 
Q 486.572727 211.671136 486.572727 207.086966 
L 486.572727 173.469716 
Q 486.572727 168.885545 479.047253 168.885545 
L 358.63966 168.885545 
Q 351.114186 168.885545 351.114186 173.469716 
L 351.114186 207.086966 
Q 351.114186 211.671136 358.63966 211.671136 
z
" clip-path="url(#pa817129046)" style="fill: #e4ccd8; stroke: #4d4d4d; stroke-width: 0.7; stroke-linejoin: miter"/>
   </g>
   <g id="matplotlib.axis_1"/>
   <g id="matplotlib.axis_2"/>
   <g id="line2d_1">
    <path d="M 157.96034 80.25825 
L 218.164136 80.25825 
" clip-path="url(#pa817129046)" style="fill: none; stroke: #000000; stroke-width: 1.2; stroke-linecap: square"/>
   </g>
   <g id="line2d_2">
    <path d="M 147.926374 190.278341 
L 368.673626 190.278341 
" clip-path="url(#pa817129046)" style="fill: none; stroke-dasharray: 5.55,2.4; stroke-dashoffset: 0; stroke: #b64342; stroke-width: 1.5"/>
   </g>
   <g id="text_1">
    <text style="font-size: 6.7px; font-family: 'Arial', 'DejaVu Sans', 'Liberation Sans', sans-serif" transform="translate(83.791231 78.447052)">pointwise</text>
    <text style="font-size: 6.7px; font-family: 'Arial', 'DejaVu Sans', 'Liberation Sans', sans-serif" transform="translate(81.9257 85.533558)">delete-one</text>
   </g>
   <g id="text_2">
    <text style="font-size: 6.7px; font-family: 'Arial', 'DejaVu Sans', 'Liberation Sans', sans-serif; text-anchor: middle" x="97.756543" y="192.010396" transform="rotate(-0 97.756543 192.010396)">LOO</text>
   </g>
   <g id="text_3">
    <text style="font-size: 6.7px; font-family: 'Arial', 'DejaVu Sans', 'Liberation Sans', sans-serif" transform="translate(247.130367 78.447052)">uniform</text>
    <text style="font-size: 6.7px; font-family: 'Arial', 'DejaVu Sans', 'Liberation Sans', sans-serif" transform="translate(243.404539 85.533558)">insert-one</text>
   </g>
   <g id="text_4">
    <text style="font-size: 6.7px; font-family: 'Arial', 'DejaVu Sans', 'Liberation Sans', sans-serif" transform="translate(407.673824 78.447052)">uniform</text>
    <text style="font-size: 6.7px; font-family: 'Arial', 'DejaVu Sans', 'Liberation Sans', sans-serif" transform="translate(401.152839 85.533558)">replace-one</text>
   </g>
   <g id="text_5">
    <text style="font-size: 6.7px; font-family: 'Arial', 'DejaVu Sans', 'Liberation Sans', sans-serif" transform="translate(404.878144 188.467142)">pointwise</text>
    <text style="font-size: 6.7px; font-family: 'Arial', 'DejaVu Sans', 'Liberation Sans', sans-serif" transform="translate(401.152839 195.553649)">replace-one</text>
   </g>
   <g id="patch_8">
    <path d="M 97.756543 112.821976 
Q 97.756543 135.269231 97.756543 156.374846 
" style="fill: none; stroke: #000000; stroke-width: 1.2; stroke-linecap: round"/>
    <path d="M 99.256543 153.374846 
L 97.756543 156.374846 
L 96.256543 153.374846 
" style="fill: none; stroke: #000000; stroke-width: 1.2; stroke-linecap: round"/>
   </g>
   <g id="patch_9">
    <path d="M 310.472459 80.25825 
Q 338.573065 80.25825 365.332031 80.25825 
" style="fill: none; stroke: #000000; stroke-width: 1.2; stroke-linecap: round"/>
    <path d="M 362.332031 78.75825 
L 365.332031 80.25825 
L 362.332031 81.75825 
" style="fill: none; stroke: #000000; stroke-width: 1.2; stroke-linecap: round"/>
   </g>
   <g id="text_6">
    <text style="font-size: 11px; font-family: 'Arial', 'DejaVu Sans', 'Liberation Sans', sans-serif; text-anchor: middle" x="188.062238" y="70.877467" transform="rotate(-0 188.062238 70.877467)">+</text>
   </g>
   <g id="text_7">
    <text style="font-size: 7px; font-family: 'Arial', 'DejaVu Sans', 'Liberation Sans', sans-serif; text-anchor: middle; fill: #b64342" x="258.3" y="211.671136" transform="rotate(-0 258.3 211.671136)">no implication: explicit k-NN separations</text>
   </g>
   <g id="text_8">
    <text style="font-size: 8px; font-family: 'Arial', 'DejaVu Sans', 'Liberation Sans', sans-serif; text-anchor: middle" x="258.3" y="13.02375" transform="rotate(-0 258.3 13.02375)">The hierarchy is about operations and evaluation points, not one scalar notion of stability.</text>
   </g>
  </g>
 </g>
 <defs>
  <clipPath id="pa817129046">
   <rect x="7.2" y="51.22517" width="502.2" height="168.08625"/>
  </clipPath>
 </defs>
</svg>
